<mxfile host="Electron" modified="2024-06-24T06:41:29.883Z" agent="Mozilla/5.0 (Windows NT 10.0; Win64; x64) AppleWebKit/537.36 (KHTML, like Gecko) draw.io/24.6.1 Chrome/124.0.6367.207 Electron/30.0.6 Safari/537.36" etag="O0ZeVLIlLQxzbjdYZpXr" version="24.6.1" type="device">
  <diagram name="第 1 页" id="VYO6-kDk40qHv62ThGH2">
    <mxGraphModel dx="1728" dy="1037" grid="1" gridSize="10" guides="1" tooltips="1" connect="1" arrows="1" fold="1" page="1" pageScale="1" pageWidth="1169" pageHeight="827" math="0" shadow="0">
      <root>
        <mxCell id="0" />
        <mxCell id="1" parent="0" />
        <mxCell id="EAyXLx8K89mgoisYaPfk-93" style="edgeStyle=orthogonalEdgeStyle;rounded=0;orthogonalLoop=1;jettySize=auto;html=1;exitX=1;exitY=0.5;exitDx=0;exitDy=0;entryX=0;entryY=0.25;entryDx=0;entryDy=0;" parent="1" source="EAyXLx8K89mgoisYaPfk-69" target="EAyXLx8K89mgoisYaPfk-92" edge="1">
          <mxGeometry relative="1" as="geometry" />
        </mxCell>
        <mxCell id="EAyXLx8K89mgoisYaPfk-69" value="d[95:0]" style="text;html=1;align=center;verticalAlign=middle;whiteSpace=wrap;rounded=0;fillColor=#f5f5f5;fontColor=#333333;strokeColor=#666666;" parent="1" vertex="1">
          <mxGeometry x="150" y="368" width="80" height="30" as="geometry" />
        </mxCell>
        <mxCell id="EAyXLx8K89mgoisYaPfk-94" style="edgeStyle=orthogonalEdgeStyle;rounded=0;orthogonalLoop=1;jettySize=auto;html=1;exitX=1;exitY=0.5;exitDx=0;exitDy=0;entryX=0;entryY=0.75;entryDx=0;entryDy=0;" parent="1" source="EAyXLx8K89mgoisYaPfk-71" target="EAyXLx8K89mgoisYaPfk-92" edge="1">
          <mxGeometry relative="1" as="geometry" />
        </mxCell>
        <mxCell id="EAyXLx8K89mgoisYaPfk-71" value="edgechoice" style="text;html=1;align=center;verticalAlign=middle;whiteSpace=wrap;rounded=0;fillColor=#f5f5f5;fontColor=#333333;strokeColor=#666666;" parent="1" vertex="1">
          <mxGeometry x="150" y="428" width="80" height="30" as="geometry" />
        </mxCell>
        <mxCell id="EAyXLx8K89mgoisYaPfk-92" value="" style="rounded=0;whiteSpace=wrap;html=1;container=1;" parent="1" vertex="1">
          <mxGeometry x="280" y="353" width="160" height="120" as="geometry" />
        </mxCell>
        <mxCell id="EAyXLx8K89mgoisYaPfk-91" value="pattern [3:0]" style="text;html=1;align=center;verticalAlign=middle;whiteSpace=wrap;rounded=0;fillColor=#f5f5f5;fontColor=#333333;strokeColor=#666666;" parent="EAyXLx8K89mgoisYaPfk-92" vertex="1">
          <mxGeometry x="20" y="45" width="120" height="30" as="geometry" />
        </mxCell>
        <mxCell id="EAyXLx8K89mgoisYaPfk-97" value="STAGE0[23:0]" style="text;html=1;align=center;verticalAlign=middle;whiteSpace=wrap;rounded=0;" parent="EAyXLx8K89mgoisYaPfk-92" vertex="1">
          <mxGeometry x="20" width="80" height="30" as="geometry" />
        </mxCell>
        <mxCell id="EAyXLx8K89mgoisYaPfk-98" value="" style="rounded=0;whiteSpace=wrap;html=1;container=1;recursiveResize=0;" parent="1" vertex="1">
          <mxGeometry x="480" y="259.5" width="160" height="307" as="geometry" />
        </mxCell>
        <mxCell id="EAyXLx8K89mgoisYaPfk-101" value="STAGE1[23:0]" style="text;html=1;align=center;verticalAlign=middle;whiteSpace=wrap;rounded=0;" parent="EAyXLx8K89mgoisYaPfk-98" vertex="1">
          <mxGeometry x="20" width="80" height="20" as="geometry" />
        </mxCell>
        <mxCell id="EAyXLx8K89mgoisYaPfk-103" value="b0000" style="text;html=1;align=center;verticalAlign=middle;whiteSpace=wrap;rounded=0;fillColor=#f5f5f5;fontColor=#333333;strokeColor=#666666;" parent="EAyXLx8K89mgoisYaPfk-98" vertex="1">
          <mxGeometry x="40" y="25" width="80" height="30" as="geometry" />
        </mxCell>
        <mxCell id="EAyXLx8K89mgoisYaPfk-104" value="b1111" style="text;html=1;align=center;verticalAlign=middle;whiteSpace=wrap;rounded=0;fillColor=#f5f5f5;fontColor=#333333;strokeColor=#666666;" parent="EAyXLx8K89mgoisYaPfk-98" vertex="1">
          <mxGeometry x="40" y="65" width="80" height="30" as="geometry" />
        </mxCell>
        <mxCell id="EAyXLx8K89mgoisYaPfk-105" value="addr [1:0]" style="text;html=1;align=center;verticalAlign=middle;whiteSpace=wrap;rounded=0;fillColor=#f5f5f5;fontColor=#333333;strokeColor=#666666;" parent="EAyXLx8K89mgoisYaPfk-98" vertex="1">
          <mxGeometry x="30" y="105" width="100" height="30" as="geometry" />
        </mxCell>
        <mxCell id="-U--1kauAl9DVAjZG-rm-10" value="addr[1:0]" style="swimlane;fontStyle=0;childLayout=stackLayout;horizontal=1;startSize=26;fillColor=none;horizontalStack=0;resizeParent=1;resizeParentMax=0;resizeLast=0;collapsible=1;marginBottom=0;html=1;" parent="EAyXLx8K89mgoisYaPfk-98" vertex="1">
          <mxGeometry x="10" y="167" width="140" height="130" as="geometry" />
        </mxCell>
        <mxCell id="-U--1kauAl9DVAjZG-rm-11" value="2&#39;b11 -&amp;gt; 4&#39;b1xxx" style="text;strokeColor=none;fillColor=none;align=center;verticalAlign=top;spacingLeft=4;spacingRight=4;overflow=hidden;rotatable=0;points=[[0,0.5],[1,0.5]];portConstraint=eastwest;whiteSpace=wrap;html=1;" parent="-U--1kauAl9DVAjZG-rm-10" vertex="1">
          <mxGeometry y="26" width="140" height="26" as="geometry" />
        </mxCell>
        <mxCell id="-U--1kauAl9DVAjZG-rm-12" value="2&#39;b10 -&amp;gt; 4&#39;b01xx" style="text;strokeColor=none;fillColor=none;align=center;verticalAlign=top;spacingLeft=4;spacingRight=4;overflow=hidden;rotatable=0;points=[[0,0.5],[1,0.5]];portConstraint=eastwest;whiteSpace=wrap;html=1;" parent="-U--1kauAl9DVAjZG-rm-10" vertex="1">
          <mxGeometry y="52" width="140" height="26" as="geometry" />
        </mxCell>
        <mxCell id="-U--1kauAl9DVAjZG-rm-13" value="2&#39;b01 -&amp;gt; 4&#39;b001x" style="text;strokeColor=none;fillColor=none;align=center;verticalAlign=top;spacingLeft=4;spacingRight=4;overflow=hidden;rotatable=0;points=[[0,0.5],[1,0.5]];portConstraint=eastwest;whiteSpace=wrap;html=1;" parent="-U--1kauAl9DVAjZG-rm-10" vertex="1">
          <mxGeometry y="78" width="140" height="26" as="geometry" />
        </mxCell>
        <mxCell id="-U--1kauAl9DVAjZG-rm-15" value="2&#39;b00 -&amp;gt; 4&#39;b000x" style="text;strokeColor=none;fillColor=none;align=center;verticalAlign=top;spacingLeft=4;spacingRight=4;overflow=hidden;rotatable=0;points=[[0,0.5],[1,0.5]];portConstraint=eastwest;whiteSpace=wrap;html=1;" parent="-U--1kauAl9DVAjZG-rm-10" vertex="1">
          <mxGeometry y="104" width="140" height="26" as="geometry" />
        </mxCell>
        <mxCell id="EAyXLx8K89mgoisYaPfk-121" value="" style="rounded=0;whiteSpace=wrap;html=1;container=1;recursiveResize=0;" parent="1" vertex="1">
          <mxGeometry x="690" y="277.75" width="330" height="270" as="geometry" />
        </mxCell>
        <mxCell id="EAyXLx8K89mgoisYaPfk-123" value="valid" style="text;html=1;align=center;verticalAlign=middle;whiteSpace=wrap;rounded=0;fillColor=#f5f5f5;fontColor=#333333;strokeColor=#666666;" parent="EAyXLx8K89mgoisYaPfk-121" vertex="1">
          <mxGeometry x="125" y="32.25" width="80" height="30" as="geometry" />
        </mxCell>
        <mxCell id="EAyXLx8K89mgoisYaPfk-124" value="STAGE2[20:0]" style="text;html=1;align=center;verticalAlign=middle;whiteSpace=wrap;rounded=0;" parent="EAyXLx8K89mgoisYaPfk-121" vertex="1">
          <mxGeometry x="20" width="80" height="20" as="geometry" />
        </mxCell>
        <mxCell id="EAyXLx8K89mgoisYaPfk-129" value="addr[1:0]" style="text;html=1;align=center;verticalAlign=middle;whiteSpace=wrap;rounded=0;fillColor=#f5f5f5;fontColor=#333333;strokeColor=#666666;" parent="EAyXLx8K89mgoisYaPfk-121" vertex="1">
          <mxGeometry x="115" y="182.25" width="100" height="30" as="geometry" />
        </mxCell>
        <mxCell id="-U--1kauAl9DVAjZG-rm-22" value="&lt;div style=&quot;text-align: left;&quot;&gt;&lt;span style=&quot;background-color: initial;&quot;&gt;{STAGE2[i+1:i-2].pattern}&amp;nbsp;&lt;/span&gt;&lt;span style=&quot;background-color: initial;&quot;&gt;= 16&#39;b0000_LE_LE_1111&lt;/span&gt;&lt;/div&gt;" style="text;html=1;align=right;verticalAlign=middle;whiteSpace=wrap;rounded=0;" parent="EAyXLx8K89mgoisYaPfk-121" vertex="1">
          <mxGeometry x="20" y="142.25" width="290" height="30" as="geometry" />
        </mxCell>
        <mxCell id="-U--1kauAl9DVAjZG-rm-23" value="" style="shape=flexArrow;endArrow=classic;html=1;rounded=0;" parent="EAyXLx8K89mgoisYaPfk-121" edge="1">
          <mxGeometry width="50" height="50" relative="1" as="geometry">
            <mxPoint x="164.70999999999998" y="134" as="sourcePoint" />
            <mxPoint x="164.70999999999998" y="74" as="targetPoint" />
            <Array as="points">
              <mxPoint x="164.70999999999998" y="104" />
            </Array>
          </mxGeometry>
        </mxCell>
        <mxCell id="-U--1kauAl9DVAjZG-rm-21" value="STAGE2[i].addr = STAGE1[i+2].addr" style="text;html=1;align=left;verticalAlign=middle;whiteSpace=wrap;rounded=0;" parent="EAyXLx8K89mgoisYaPfk-121" vertex="1">
          <mxGeometry x="65" y="222.25" width="200" height="30" as="geometry" />
        </mxCell>
        <mxCell id="-U--1kauAl9DVAjZG-rm-24" style="edgeStyle=orthogonalEdgeStyle;rounded=0;orthogonalLoop=1;jettySize=auto;html=1;entryX=0;entryY=0.5;entryDx=0;entryDy=0;" parent="1" source="EAyXLx8K89mgoisYaPfk-103" target="EAyXLx8K89mgoisYaPfk-121" edge="1">
          <mxGeometry relative="1" as="geometry">
            <Array as="points">
              <mxPoint x="660" y="300" />
              <mxPoint x="660" y="413" />
            </Array>
          </mxGeometry>
        </mxCell>
        <mxCell id="-U--1kauAl9DVAjZG-rm-25" style="edgeStyle=orthogonalEdgeStyle;rounded=0;orthogonalLoop=1;jettySize=auto;html=1;exitX=1;exitY=0.5;exitDx=0;exitDy=0;entryX=0;entryY=0.5;entryDx=0;entryDy=0;" parent="1" source="EAyXLx8K89mgoisYaPfk-91" target="EAyXLx8K89mgoisYaPfk-98" edge="1">
          <mxGeometry relative="1" as="geometry" />
        </mxCell>
        <mxCell id="-U--1kauAl9DVAjZG-rm-26" style="edgeStyle=orthogonalEdgeStyle;rounded=0;orthogonalLoop=1;jettySize=auto;html=1;exitX=1;exitY=0.5;exitDx=0;exitDy=0;entryX=0;entryY=0.5;entryDx=0;entryDy=0;" parent="1" source="EAyXLx8K89mgoisYaPfk-104" target="EAyXLx8K89mgoisYaPfk-121" edge="1">
          <mxGeometry relative="1" as="geometry">
            <Array as="points">
              <mxPoint x="660" y="340" />
              <mxPoint x="660" y="413" />
            </Array>
          </mxGeometry>
        </mxCell>
        <mxCell id="-U--1kauAl9DVAjZG-rm-27" style="edgeStyle=orthogonalEdgeStyle;rounded=0;orthogonalLoop=1;jettySize=auto;html=1;exitX=1;exitY=0.5;exitDx=0;exitDy=0;entryX=0;entryY=0.5;entryDx=0;entryDy=0;" parent="1" source="EAyXLx8K89mgoisYaPfk-105" target="EAyXLx8K89mgoisYaPfk-121" edge="1">
          <mxGeometry relative="1" as="geometry">
            <Array as="points">
              <mxPoint x="660" y="380" />
              <mxPoint x="660" y="413" />
            </Array>
          </mxGeometry>
        </mxCell>
        <mxCell id="-U--1kauAl9DVAjZG-rm-28" value="" style="rounded=0;whiteSpace=wrap;html=1;container=1;recursiveResize=0;" parent="1" vertex="1">
          <mxGeometry x="1070" y="277.75" width="210" height="270" as="geometry" />
        </mxCell>
        <mxCell id="-U--1kauAl9DVAjZG-rm-29" value="valid" style="text;html=1;align=center;verticalAlign=middle;whiteSpace=wrap;rounded=0;fillColor=#f5f5f5;fontColor=#333333;strokeColor=#666666;" parent="-U--1kauAl9DVAjZG-rm-28" vertex="1">
          <mxGeometry x="65" y="32.25" width="80" height="30" as="geometry" />
        </mxCell>
        <mxCell id="-U--1kauAl9DVAjZG-rm-30" value="STAGE3[10:0]" style="text;html=1;align=center;verticalAlign=middle;whiteSpace=wrap;rounded=0;" parent="-U--1kauAl9DVAjZG-rm-28" vertex="1">
          <mxGeometry x="20" width="80" height="20" as="geometry" />
        </mxCell>
        <mxCell id="-U--1kauAl9DVAjZG-rm-31" value="addr[2:0]" style="text;html=1;align=center;verticalAlign=middle;whiteSpace=wrap;rounded=0;fillColor=#f5f5f5;fontColor=#333333;strokeColor=#666666;" parent="-U--1kauAl9DVAjZG-rm-28" vertex="1">
          <mxGeometry x="55" y="82.25" width="100" height="30" as="geometry" />
        </mxCell>
        <mxCell id="-U--1kauAl9DVAjZG-rm-39" value="addr[2:0]" style="swimlane;fontStyle=0;childLayout=stackLayout;horizontal=1;startSize=26;fillColor=none;horizontalStack=0;resizeParent=1;resizeParentMax=0;resizeLast=0;collapsible=1;marginBottom=0;html=1;" parent="-U--1kauAl9DVAjZG-rm-28" vertex="1">
          <mxGeometry x="25" y="142.25" width="160" height="100" as="geometry" />
        </mxCell>
        <mxCell id="-U--1kauAl9DVAjZG-rm-40" value="LE in odd position&lt;div&gt;&amp;nbsp;=&amp;gt; {1&#39;b1,STAGE2.addr}&lt;/div&gt;" style="text;strokeColor=none;fillColor=none;align=center;verticalAlign=top;spacingLeft=4;spacingRight=4;overflow=hidden;rotatable=0;points=[[0,0.5],[1,0.5]];portConstraint=eastwest;whiteSpace=wrap;html=1;" parent="-U--1kauAl9DVAjZG-rm-39" vertex="1">
          <mxGeometry y="26" width="160" height="34" as="geometry" />
        </mxCell>
        <mxCell id="-U--1kauAl9DVAjZG-rm-43" value="LE in even position&lt;div&gt;&amp;nbsp;=&amp;gt; {1&#39;b0,STAGE2.addr}&lt;/div&gt;" style="text;strokeColor=none;fillColor=none;align=center;verticalAlign=top;spacingLeft=4;spacingRight=4;overflow=hidden;rotatable=0;points=[[0,0.5],[1,0.5]];portConstraint=eastwest;whiteSpace=wrap;html=1;" parent="-U--1kauAl9DVAjZG-rm-39" vertex="1">
          <mxGeometry y="60" width="160" height="40" as="geometry" />
        </mxCell>
        <mxCell id="-U--1kauAl9DVAjZG-rm-38" style="edgeStyle=orthogonalEdgeStyle;rounded=0;orthogonalLoop=1;jettySize=auto;html=1;exitX=1;exitY=0.5;exitDx=0;exitDy=0;" parent="1" source="EAyXLx8K89mgoisYaPfk-123" target="-U--1kauAl9DVAjZG-rm-29" edge="1">
          <mxGeometry relative="1" as="geometry" />
        </mxCell>
        <mxCell id="-U--1kauAl9DVAjZG-rm-44" style="edgeStyle=orthogonalEdgeStyle;rounded=0;orthogonalLoop=1;jettySize=auto;html=1;exitX=1;exitY=0.5;exitDx=0;exitDy=0;entryX=0;entryY=0.5;entryDx=0;entryDy=0;" parent="1" source="EAyXLx8K89mgoisYaPfk-129" target="-U--1kauAl9DVAjZG-rm-31" edge="1">
          <mxGeometry relative="1" as="geometry">
            <Array as="points">
              <mxPoint x="1050" y="475" />
              <mxPoint x="1050" y="375" />
            </Array>
          </mxGeometry>
        </mxCell>
        <mxCell id="-U--1kauAl9DVAjZG-rm-52" value="" style="rounded=0;whiteSpace=wrap;html=1;container=1;recursiveResize=0;" parent="1" vertex="1">
          <mxGeometry x="1320" y="277.75" width="210" height="270" as="geometry" />
        </mxCell>
        <mxCell id="-U--1kauAl9DVAjZG-rm-53" value="valid" style="text;html=1;align=center;verticalAlign=middle;whiteSpace=wrap;rounded=0;fillColor=#f5f5f5;fontColor=#333333;strokeColor=#666666;" parent="-U--1kauAl9DVAjZG-rm-52" vertex="1">
          <mxGeometry x="65" y="32.25" width="80" height="30" as="geometry" />
        </mxCell>
        <mxCell id="-U--1kauAl9DVAjZG-rm-54" value="STAGE4[5:0]" style="text;html=1;align=center;verticalAlign=middle;whiteSpace=wrap;rounded=0;" parent="-U--1kauAl9DVAjZG-rm-52" vertex="1">
          <mxGeometry x="20" width="80" height="20" as="geometry" />
        </mxCell>
        <mxCell id="-U--1kauAl9DVAjZG-rm-55" value="addr[3:0]" style="text;html=1;align=center;verticalAlign=middle;whiteSpace=wrap;rounded=0;fillColor=#f5f5f5;fontColor=#333333;strokeColor=#666666;" parent="-U--1kauAl9DVAjZG-rm-52" vertex="1">
          <mxGeometry x="55" y="82.25" width="100" height="30" as="geometry" />
        </mxCell>
        <mxCell id="-U--1kauAl9DVAjZG-rm-56" value="addr[3:0]" style="swimlane;fontStyle=0;childLayout=stackLayout;horizontal=1;startSize=26;fillColor=none;horizontalStack=0;resizeParent=1;resizeParentMax=0;resizeLast=0;collapsible=1;marginBottom=0;html=1;" parent="-U--1kauAl9DVAjZG-rm-52" vertex="1">
          <mxGeometry x="25" y="142.25" width="160" height="100" as="geometry" />
        </mxCell>
        <mxCell id="-U--1kauAl9DVAjZG-rm-57" value="LE in odd position&lt;div&gt;&amp;nbsp;=&amp;gt; {1&#39;b1,STAGE3.addr}&lt;/div&gt;" style="text;strokeColor=none;fillColor=none;align=center;verticalAlign=top;spacingLeft=4;spacingRight=4;overflow=hidden;rotatable=0;points=[[0,0.5],[1,0.5]];portConstraint=eastwest;whiteSpace=wrap;html=1;" parent="-U--1kauAl9DVAjZG-rm-56" vertex="1">
          <mxGeometry y="26" width="160" height="34" as="geometry" />
        </mxCell>
        <mxCell id="-U--1kauAl9DVAjZG-rm-58" value="LE in even position&lt;div&gt;&amp;nbsp;=&amp;gt; {1&#39;b0,STAGE3.addr}&lt;/div&gt;" style="text;strokeColor=none;fillColor=none;align=center;verticalAlign=top;spacingLeft=4;spacingRight=4;overflow=hidden;rotatable=0;points=[[0,0.5],[1,0.5]];portConstraint=eastwest;whiteSpace=wrap;html=1;" parent="-U--1kauAl9DVAjZG-rm-56" vertex="1">
          <mxGeometry y="60" width="160" height="40" as="geometry" />
        </mxCell>
        <mxCell id="-U--1kauAl9DVAjZG-rm-60" style="edgeStyle=orthogonalEdgeStyle;rounded=0;orthogonalLoop=1;jettySize=auto;html=1;exitX=1;exitY=0.5;exitDx=0;exitDy=0;entryX=0;entryY=0.5;entryDx=0;entryDy=0;" parent="1" source="-U--1kauAl9DVAjZG-rm-29" target="-U--1kauAl9DVAjZG-rm-53" edge="1">
          <mxGeometry relative="1" as="geometry" />
        </mxCell>
        <mxCell id="-U--1kauAl9DVAjZG-rm-61" style="edgeStyle=orthogonalEdgeStyle;rounded=0;orthogonalLoop=1;jettySize=auto;html=1;exitX=1;exitY=0.5;exitDx=0;exitDy=0;entryX=0;entryY=0.5;entryDx=0;entryDy=0;" parent="1" source="-U--1kauAl9DVAjZG-rm-31" target="-U--1kauAl9DVAjZG-rm-55" edge="1">
          <mxGeometry relative="1" as="geometry" />
        </mxCell>
        <mxCell id="-U--1kauAl9DVAjZG-rm-62" value="" style="rounded=0;whiteSpace=wrap;html=1;container=1;recursiveResize=0;" parent="1" vertex="1">
          <mxGeometry x="1570" y="278" width="210" height="270" as="geometry" />
        </mxCell>
        <mxCell id="-U--1kauAl9DVAjZG-rm-63" value="valid" style="text;html=1;align=center;verticalAlign=middle;whiteSpace=wrap;rounded=0;fillColor=#f5f5f5;fontColor=#333333;strokeColor=#666666;" parent="-U--1kauAl9DVAjZG-rm-62" vertex="1">
          <mxGeometry x="65" y="32.25" width="80" height="30" as="geometry" />
        </mxCell>
        <mxCell id="-U--1kauAl9DVAjZG-rm-64" value="STAGE5[2:0]" style="text;html=1;align=center;verticalAlign=middle;whiteSpace=wrap;rounded=0;" parent="-U--1kauAl9DVAjZG-rm-62" vertex="1">
          <mxGeometry x="20" width="80" height="20" as="geometry" />
        </mxCell>
        <mxCell id="-U--1kauAl9DVAjZG-rm-65" value="addr[4:0]" style="text;html=1;align=center;verticalAlign=middle;whiteSpace=wrap;rounded=0;fillColor=#f5f5f5;fontColor=#333333;strokeColor=#666666;" parent="-U--1kauAl9DVAjZG-rm-62" vertex="1">
          <mxGeometry x="55" y="82.25" width="100" height="30" as="geometry" />
        </mxCell>
        <mxCell id="-U--1kauAl9DVAjZG-rm-66" value="addr[4:0]" style="swimlane;fontStyle=0;childLayout=stackLayout;horizontal=1;startSize=26;fillColor=none;horizontalStack=0;resizeParent=1;resizeParentMax=0;resizeLast=0;collapsible=1;marginBottom=0;html=1;" parent="-U--1kauAl9DVAjZG-rm-62" vertex="1">
          <mxGeometry x="25" y="142.25" width="160" height="100" as="geometry" />
        </mxCell>
        <mxCell id="-U--1kauAl9DVAjZG-rm-67" value="LE in odd position&lt;div&gt;&amp;nbsp;=&amp;gt; {1&#39;b1,STAGE4.addr}&lt;/div&gt;" style="text;strokeColor=none;fillColor=none;align=center;verticalAlign=top;spacingLeft=4;spacingRight=4;overflow=hidden;rotatable=0;points=[[0,0.5],[1,0.5]];portConstraint=eastwest;whiteSpace=wrap;html=1;" parent="-U--1kauAl9DVAjZG-rm-66" vertex="1">
          <mxGeometry y="26" width="160" height="34" as="geometry" />
        </mxCell>
        <mxCell id="-U--1kauAl9DVAjZG-rm-68" value="LE in even position&lt;div&gt;&amp;nbsp;=&amp;gt; {1&#39;b0,STAGE4.addr}&lt;/div&gt;" style="text;strokeColor=none;fillColor=none;align=center;verticalAlign=top;spacingLeft=4;spacingRight=4;overflow=hidden;rotatable=0;points=[[0,0.5],[1,0.5]];portConstraint=eastwest;whiteSpace=wrap;html=1;" parent="-U--1kauAl9DVAjZG-rm-66" vertex="1">
          <mxGeometry y="60" width="160" height="40" as="geometry" />
        </mxCell>
        <mxCell id="-U--1kauAl9DVAjZG-rm-69" style="edgeStyle=orthogonalEdgeStyle;rounded=0;orthogonalLoop=1;jettySize=auto;html=1;exitX=1;exitY=0.5;exitDx=0;exitDy=0;entryX=0;entryY=0.5;entryDx=0;entryDy=0;" parent="1" source="-U--1kauAl9DVAjZG-rm-53" target="-U--1kauAl9DVAjZG-rm-63" edge="1">
          <mxGeometry relative="1" as="geometry" />
        </mxCell>
        <mxCell id="-U--1kauAl9DVAjZG-rm-70" style="edgeStyle=orthogonalEdgeStyle;rounded=0;orthogonalLoop=1;jettySize=auto;html=1;exitX=1;exitY=0.5;exitDx=0;exitDy=0;entryX=0;entryY=0.5;entryDx=0;entryDy=0;" parent="1" source="-U--1kauAl9DVAjZG-rm-55" target="-U--1kauAl9DVAjZG-rm-65" edge="1">
          <mxGeometry relative="1" as="geometry" />
        </mxCell>
        <mxCell id="-U--1kauAl9DVAjZG-rm-72" value="hitmap[2:0]" style="swimlane;fontStyle=0;childLayout=stackLayout;horizontal=1;startSize=26;fillColor=none;horizontalStack=0;resizeParent=1;resizeParentMax=0;resizeLast=0;collapsible=1;marginBottom=0;html=1;" parent="1" vertex="1">
          <mxGeometry x="2480" y="279" width="160" height="130" as="geometry" />
        </mxCell>
        <mxCell id="-U--1kauAl9DVAjZG-rm-73" value="STAGE5[2].valid -&amp;gt;3&#39;b110" style="text;strokeColor=none;fillColor=none;align=center;verticalAlign=top;spacingLeft=4;spacingRight=4;overflow=hidden;rotatable=0;points=[[0,0.5],[1,0.5]];portConstraint=eastwest;whiteSpace=wrap;html=1;" parent="-U--1kauAl9DVAjZG-rm-72" vertex="1">
          <mxGeometry y="26" width="160" height="26" as="geometry" />
        </mxCell>
        <mxCell id="-U--1kauAl9DVAjZG-rm-74" value="STAGE5[1].valid -&amp;gt;3&#39;b101" style="text;strokeColor=none;fillColor=none;align=center;verticalAlign=top;spacingLeft=4;spacingRight=4;overflow=hidden;rotatable=0;points=[[0,0.5],[1,0.5]];portConstraint=eastwest;whiteSpace=wrap;html=1;" parent="-U--1kauAl9DVAjZG-rm-72" vertex="1">
          <mxGeometry y="52" width="160" height="26" as="geometry" />
        </mxCell>
        <mxCell id="-U--1kauAl9DVAjZG-rm-75" value="STAGE5[0].valid -&amp;gt;3&#39;b100" style="text;strokeColor=none;fillColor=none;align=center;verticalAlign=top;spacingLeft=4;spacingRight=4;overflow=hidden;rotatable=0;points=[[0,0.5],[1,0.5]];portConstraint=eastwest;whiteSpace=wrap;html=1;" parent="-U--1kauAl9DVAjZG-rm-72" vertex="1">
          <mxGeometry y="78" width="160" height="26" as="geometry" />
        </mxCell>
        <mxCell id="-U--1kauAl9DVAjZG-rm-87" value="no vailid -&amp;gt;3&#39;b000" style="text;strokeColor=none;fillColor=none;align=center;verticalAlign=top;spacingLeft=4;spacingRight=4;overflow=hidden;rotatable=0;points=[[0,0.5],[1,0.5]];portConstraint=eastwest;whiteSpace=wrap;html=1;" parent="-U--1kauAl9DVAjZG-rm-72" vertex="1">
          <mxGeometry y="104" width="160" height="26" as="geometry" />
        </mxCell>
        <mxCell id="-U--1kauAl9DVAjZG-rm-83" value="lowhit[1:0]" style="swimlane;fontStyle=0;childLayout=stackLayout;horizontal=1;startSize=26;fillColor=none;horizontalStack=0;resizeParent=1;resizeParentMax=0;resizeLast=0;collapsible=1;marginBottom=0;html=1;" parent="1" vertex="1">
          <mxGeometry x="2490" y="80" width="140" height="104" as="geometry" />
        </mxCell>
        <mxCell id="-U--1kauAl9DVAjZG-rm-84" value="2&#39;b00" style="text;strokeColor=none;fillColor=none;align=center;verticalAlign=top;spacingLeft=4;spacingRight=4;overflow=hidden;rotatable=0;points=[[0,0.5],[1,0.5]];portConstraint=eastwest;whiteSpace=wrap;html=1;" parent="-U--1kauAl9DVAjZG-rm-83" vertex="1">
          <mxGeometry y="26" width="140" height="26" as="geometry" />
        </mxCell>
        <mxCell id="-U--1kauAl9DVAjZG-rm-85" value="2&#39;b10" style="text;strokeColor=none;fillColor=none;align=center;verticalAlign=top;spacingLeft=4;spacingRight=4;overflow=hidden;rotatable=0;points=[[0,0.5],[1,0.5]];portConstraint=eastwest;whiteSpace=wrap;html=1;" parent="-U--1kauAl9DVAjZG-rm-83" vertex="1">
          <mxGeometry y="52" width="140" height="26" as="geometry" />
        </mxCell>
        <mxCell id="-U--1kauAl9DVAjZG-rm-88" value="2&#39;b11" style="text;strokeColor=none;fillColor=none;align=center;verticalAlign=top;spacingLeft=4;spacingRight=4;overflow=hidden;rotatable=0;points=[[0,0.5],[1,0.5]];portConstraint=eastwest;whiteSpace=wrap;html=1;" parent="-U--1kauAl9DVAjZG-rm-83" vertex="1">
          <mxGeometry y="78" width="140" height="26" as="geometry" />
        </mxCell>
        <mxCell id="-U--1kauAl9DVAjZG-rm-143" style="edgeStyle=orthogonalEdgeStyle;rounded=0;orthogonalLoop=1;jettySize=auto;html=1;exitX=1;exitY=0.5;exitDx=0;exitDy=0;entryX=0;entryY=0.5;entryDx=0;entryDy=0;" parent="1" source="-U--1kauAl9DVAjZG-rm-135" target="-U--1kauAl9DVAjZG-rm-74" edge="1">
          <mxGeometry relative="1" as="geometry" />
        </mxCell>
        <mxCell id="-U--1kauAl9DVAjZG-rm-135" value="" style="rounded=0;whiteSpace=wrap;html=1;container=1;recursiveResize=0;" parent="1" vertex="1">
          <mxGeometry x="1850" y="279" width="510" height="270" as="geometry" />
        </mxCell>
        <mxCell id="-U--1kauAl9DVAjZG-rm-137" value="MUX" style="text;html=1;align=center;verticalAlign=middle;whiteSpace=wrap;rounded=0;" parent="-U--1kauAl9DVAjZG-rm-135" vertex="1">
          <mxGeometry x="20" width="80" height="20" as="geometry" />
        </mxCell>
        <mxCell id="-U--1kauAl9DVAjZG-rm-105" style="edgeStyle=orthogonalEdgeStyle;rounded=0;orthogonalLoop=1;jettySize=auto;html=1;exitX=0.5;exitY=1;exitDx=0;exitDy=0;entryX=0.5;entryY=1;entryDx=0;entryDy=0;strokeColor=#FF0000;" parent="-U--1kauAl9DVAjZG-rm-135" source="-U--1kauAl9DVAjZG-rm-98" target="-U--1kauAl9DVAjZG-rm-99" edge="1">
          <mxGeometry relative="1" as="geometry" />
        </mxCell>
        <mxCell id="-U--1kauAl9DVAjZG-rm-108" style="edgeStyle=orthogonalEdgeStyle;rounded=0;orthogonalLoop=1;jettySize=auto;html=1;exitX=0.5;exitY=1;exitDx=0;exitDy=0;entryX=0.5;entryY=1;entryDx=0;entryDy=0;fontColor=#007FFF;strokeColor=#007FFF;" parent="-U--1kauAl9DVAjZG-rm-135" source="-U--1kauAl9DVAjZG-rm-98" target="-U--1kauAl9DVAjZG-rm-100" edge="1">
          <mxGeometry relative="1" as="geometry">
            <Array as="points">
              <mxPoint x="110" y="241.23000000000002" />
              <mxPoint x="420" y="241.23000000000002" />
            </Array>
          </mxGeometry>
        </mxCell>
        <mxCell id="-U--1kauAl9DVAjZG-rm-98" value="2&#39;b00" style="ellipse;whiteSpace=wrap;html=1;aspect=fixed;" parent="-U--1kauAl9DVAjZG-rm-135" vertex="1">
          <mxGeometry x="90" y="121.23000000000002" width="40" height="40" as="geometry" />
        </mxCell>
        <mxCell id="-U--1kauAl9DVAjZG-rm-110" style="edgeStyle=orthogonalEdgeStyle;rounded=0;orthogonalLoop=1;jettySize=auto;html=1;exitX=1;exitY=0.5;exitDx=0;exitDy=0;entryX=0.5;entryY=1;entryDx=0;entryDy=0;fontColor=#007FFF;strokeColor=#007FFF;" parent="-U--1kauAl9DVAjZG-rm-135" source="-U--1kauAl9DVAjZG-rm-99" target="-U--1kauAl9DVAjZG-rm-100" edge="1">
          <mxGeometry relative="1" as="geometry">
            <Array as="points">
              <mxPoint x="320" y="141.23000000000002" />
              <mxPoint x="320" y="241.23000000000002" />
              <mxPoint x="420" y="241.23000000000002" />
            </Array>
          </mxGeometry>
        </mxCell>
        <mxCell id="-U--1kauAl9DVAjZG-rm-117" style="edgeStyle=orthogonalEdgeStyle;rounded=0;orthogonalLoop=1;jettySize=auto;html=1;exitX=0.5;exitY=0;exitDx=0;exitDy=0;entryX=0.5;entryY=0;entryDx=0;entryDy=0;" parent="-U--1kauAl9DVAjZG-rm-135" source="-U--1kauAl9DVAjZG-rm-99" target="-U--1kauAl9DVAjZG-rm-98" edge="1">
          <mxGeometry relative="1" as="geometry" />
        </mxCell>
        <mxCell id="-U--1kauAl9DVAjZG-rm-121" style="edgeStyle=orthogonalEdgeStyle;rounded=0;orthogonalLoop=1;jettySize=auto;html=1;exitX=0.5;exitY=0;exitDx=0;exitDy=0;strokeColor=#00CC00;" parent="-U--1kauAl9DVAjZG-rm-135" source="-U--1kauAl9DVAjZG-rm-99" edge="1">
          <mxGeometry relative="1" as="geometry">
            <mxPoint x="110" y="121.15476190476193" as="targetPoint" />
            <Array as="points">
              <mxPoint x="260" y="51.25" />
              <mxPoint x="110" y="51.25" />
            </Array>
          </mxGeometry>
        </mxCell>
        <mxCell id="-U--1kauAl9DVAjZG-rm-99" value="2&#39;b10" style="ellipse;whiteSpace=wrap;html=1;aspect=fixed;" parent="-U--1kauAl9DVAjZG-rm-135" vertex="1">
          <mxGeometry x="240" y="121.23000000000002" width="40" height="40" as="geometry" />
        </mxCell>
        <mxCell id="-U--1kauAl9DVAjZG-rm-111" style="edgeStyle=orthogonalEdgeStyle;rounded=0;orthogonalLoop=1;jettySize=auto;html=1;exitX=0;exitY=0.5;exitDx=0;exitDy=0;fontColor=#007FFF;strokeColor=#007FFF;" parent="-U--1kauAl9DVAjZG-rm-135" source="-U--1kauAl9DVAjZG-rm-100" edge="1">
          <mxGeometry relative="1" as="geometry">
            <mxPoint x="420" y="161.23000000000002" as="targetPoint" />
            <Array as="points">
              <mxPoint x="320" y="141.23000000000002" />
              <mxPoint x="320" y="241.23000000000002" />
              <mxPoint x="420" y="241.23000000000002" />
            </Array>
          </mxGeometry>
        </mxCell>
        <mxCell id="-U--1kauAl9DVAjZG-rm-112" value="VALID == 1" style="edgeLabel;html=1;align=center;verticalAlign=middle;resizable=0;points=[];fontColor=#007FFF;" parent="-U--1kauAl9DVAjZG-rm-111" vertex="1" connectable="0">
          <mxGeometry x="0.2915" y="2" relative="1" as="geometry">
            <mxPoint as="offset" />
          </mxGeometry>
        </mxCell>
        <mxCell id="-U--1kauAl9DVAjZG-rm-118" style="edgeStyle=orthogonalEdgeStyle;rounded=0;orthogonalLoop=1;jettySize=auto;html=1;exitX=0.5;exitY=0;exitDx=0;exitDy=0;entryX=0.5;entryY=0;entryDx=0;entryDy=0;" parent="-U--1kauAl9DVAjZG-rm-135" source="-U--1kauAl9DVAjZG-rm-100" target="-U--1kauAl9DVAjZG-rm-98" edge="1">
          <mxGeometry relative="1" as="geometry" />
        </mxCell>
        <mxCell id="-U--1kauAl9DVAjZG-rm-119" value="VALID == 3" style="edgeLabel;html=1;align=center;verticalAlign=middle;resizable=0;points=[];" parent="-U--1kauAl9DVAjZG-rm-118" vertex="1" connectable="0">
          <mxGeometry x="0.5369" y="1" relative="1" as="geometry">
            <mxPoint as="offset" />
          </mxGeometry>
        </mxCell>
        <mxCell id="-U--1kauAl9DVAjZG-rm-120" style="edgeStyle=orthogonalEdgeStyle;rounded=0;orthogonalLoop=1;jettySize=auto;html=1;exitX=0.5;exitY=0;exitDx=0;exitDy=0;strokeColor=#00CC00;" parent="-U--1kauAl9DVAjZG-rm-135" source="-U--1kauAl9DVAjZG-rm-100" edge="1">
          <mxGeometry relative="1" as="geometry">
            <mxPoint x="110" y="121.15476190476193" as="targetPoint" />
            <Array as="points">
              <mxPoint x="420" y="51.25" />
              <mxPoint x="110" y="51.25" />
            </Array>
          </mxGeometry>
        </mxCell>
        <mxCell id="-U--1kauAl9DVAjZG-rm-100" value="2&#39;b11" style="ellipse;whiteSpace=wrap;html=1;aspect=fixed;" parent="-U--1kauAl9DVAjZG-rm-135" vertex="1">
          <mxGeometry x="400" y="121.23000000000002" width="40" height="40" as="geometry" />
        </mxCell>
        <mxCell id="-U--1kauAl9DVAjZG-rm-106" style="edgeStyle=orthogonalEdgeStyle;rounded=0;orthogonalLoop=1;jettySize=auto;html=1;exitX=0;exitY=0.5;exitDx=0;exitDy=0;entryX=0.5;entryY=1;entryDx=0;entryDy=0;strokeColor=#FF0000;" parent="-U--1kauAl9DVAjZG-rm-135" source="-U--1kauAl9DVAjZG-rm-99" target="-U--1kauAl9DVAjZG-rm-99" edge="1">
          <mxGeometry relative="1" as="geometry">
            <Array as="points">
              <mxPoint x="160" y="141.23000000000002" />
              <mxPoint x="160" y="181.23000000000002" />
              <mxPoint x="260" y="181.23000000000002" />
            </Array>
          </mxGeometry>
        </mxCell>
        <mxCell id="-U--1kauAl9DVAjZG-rm-107" value="VALID == 2" style="edgeLabel;html=1;align=center;verticalAlign=middle;resizable=0;points=[];fontColor=#FF0000;" parent="-U--1kauAl9DVAjZG-rm-106" vertex="1" connectable="0">
          <mxGeometry x="0.346" y="1" relative="1" as="geometry">
            <mxPoint as="offset" />
          </mxGeometry>
        </mxCell>
        <mxCell id="-U--1kauAl9DVAjZG-rm-122" style="edgeStyle=orthogonalEdgeStyle;rounded=0;orthogonalLoop=1;jettySize=auto;html=1;exitX=1;exitY=0.5;exitDx=0;exitDy=0;entryX=0.5;entryY=0;entryDx=0;entryDy=0;strokeColor=#00CC00;" parent="-U--1kauAl9DVAjZG-rm-135" source="-U--1kauAl9DVAjZG-rm-98" target="-U--1kauAl9DVAjZG-rm-98" edge="1">
          <mxGeometry relative="1" as="geometry">
            <Array as="points">
              <mxPoint x="230" y="141.25" />
              <mxPoint x="230" y="51.25" />
              <mxPoint x="110" y="51.25" />
            </Array>
          </mxGeometry>
        </mxCell>
        <mxCell id="-U--1kauAl9DVAjZG-rm-123" value="VALID == 0" style="edgeLabel;html=1;align=center;verticalAlign=middle;resizable=0;points=[];" parent="-U--1kauAl9DVAjZG-rm-122" vertex="1" connectable="0">
          <mxGeometry x="0.3329" y="-2" relative="1" as="geometry">
            <mxPoint x="3" y="2" as="offset" />
          </mxGeometry>
        </mxCell>
        <mxCell id="-U--1kauAl9DVAjZG-rm-142" style="edgeStyle=orthogonalEdgeStyle;rounded=0;orthogonalLoop=1;jettySize=auto;html=1;exitX=1;exitY=0.5;exitDx=0;exitDy=0;" parent="1" source="-U--1kauAl9DVAjZG-rm-63" target="-U--1kauAl9DVAjZG-rm-135" edge="1">
          <mxGeometry relative="1" as="geometry">
            <Array as="points">
              <mxPoint x="1830" y="325" />
              <mxPoint x="1830" y="414" />
            </Array>
          </mxGeometry>
        </mxCell>
        <mxCell id="-U--1kauAl9DVAjZG-rm-144" style="edgeStyle=orthogonalEdgeStyle;rounded=0;orthogonalLoop=1;jettySize=auto;html=1;exitX=0;exitY=0.5;exitDx=0;exitDy=0;startArrow=classic;startFill=1;" parent="1" source="-U--1kauAl9DVAjZG-rm-85" target="-U--1kauAl9DVAjZG-rm-135" edge="1">
          <mxGeometry relative="1" as="geometry" />
        </mxCell>
        <mxCell id="-U--1kauAl9DVAjZG-rm-145" value="exclusive_addr[6:0]" style="swimlane;fontStyle=0;childLayout=stackLayout;horizontal=1;startSize=26;fillColor=none;horizontalStack=0;resizeParent=1;resizeParentMax=0;resizeLast=0;collapsible=1;marginBottom=0;html=1;" parent="1" vertex="1">
          <mxGeometry x="2480" y="640" width="160" height="86" as="geometry" />
        </mxCell>
        <mxCell id="-U--1kauAl9DVAjZG-rm-147" value="{hitmap[1:0],STAGE.addr}&lt;div&gt;&lt;font color=&quot;#00cc00&quot;&gt;for valid&lt;/font&gt;&lt;/div&gt;" style="text;strokeColor=none;fillColor=none;align=center;verticalAlign=top;spacingLeft=4;spacingRight=4;overflow=hidden;rotatable=0;points=[[0,0.5],[1,0.5]];portConstraint=eastwest;whiteSpace=wrap;html=1;" parent="-U--1kauAl9DVAjZG-rm-145" vertex="1">
          <mxGeometry y="26" width="160" height="34" as="geometry" />
        </mxCell>
        <mxCell id="-U--1kauAl9DVAjZG-rm-149" value="6&#39;b0000000 &lt;font color=&quot;#00cc00&quot;&gt;for not valid&lt;/font&gt;" style="text;strokeColor=none;fillColor=none;align=center;verticalAlign=top;spacingLeft=4;spacingRight=4;overflow=hidden;rotatable=0;points=[[0,0.5],[1,0.5]];portConstraint=eastwest;whiteSpace=wrap;html=1;" parent="-U--1kauAl9DVAjZG-rm-145" vertex="1">
          <mxGeometry y="60" width="160" height="26" as="geometry" />
        </mxCell>
        <mxCell id="-U--1kauAl9DVAjZG-rm-152" style="edgeStyle=orthogonalEdgeStyle;rounded=0;orthogonalLoop=1;jettySize=auto;html=1;exitX=1;exitY=0.5;exitDx=0;exitDy=0;entryX=0;entryY=0.5;entryDx=0;entryDy=0;" parent="1" source="-U--1kauAl9DVAjZG-rm-74" target="-U--1kauAl9DVAjZG-rm-147" edge="1">
          <mxGeometry relative="1" as="geometry">
            <Array as="points">
              <mxPoint x="2660" y="344" />
              <mxPoint x="2660" y="512" />
              <mxPoint x="2420" y="512" />
              <mxPoint x="2420" y="683" />
            </Array>
          </mxGeometry>
        </mxCell>
        <mxCell id="-U--1kauAl9DVAjZG-rm-153" style="edgeStyle=orthogonalEdgeStyle;rounded=0;orthogonalLoop=1;jettySize=auto;html=1;exitX=1;exitY=0.5;exitDx=0;exitDy=0;entryX=0;entryY=0.5;entryDx=0;entryDy=0;" parent="1" source="-U--1kauAl9DVAjZG-rm-65" target="-U--1kauAl9DVAjZG-rm-147" edge="1">
          <mxGeometry relative="1" as="geometry">
            <Array as="points">
              <mxPoint x="1800" y="375" />
              <mxPoint x="1800" y="683" />
            </Array>
          </mxGeometry>
        </mxCell>
        <mxCell id="-U--1kauAl9DVAjZG-rm-158" style="edgeStyle=orthogonalEdgeStyle;rounded=0;orthogonalLoop=1;jettySize=auto;html=1;exitX=1;exitY=0.5;exitDx=0;exitDy=0;entryX=0;entryY=0.5;entryDx=0;entryDy=0;" parent="1" source="-U--1kauAl9DVAjZG-rm-155" target="-U--1kauAl9DVAjZG-rm-156" edge="1">
          <mxGeometry relative="1" as="geometry" />
        </mxCell>
        <mxCell id="-U--1kauAl9DVAjZG-rm-155" value="hit&lt;div&gt;&amp;nbsp;&lt;font color=&quot;#00cc00&quot;&gt;= hitmap[2]&lt;/font&gt;&lt;/div&gt;" style="text;html=1;align=center;verticalAlign=middle;whiteSpace=wrap;rounded=0;fillColor=#f5f5f5;fontColor=#333333;strokeColor=#666666;" parent="1" vertex="1">
          <mxGeometry x="2770" y="329" width="80" height="30" as="geometry" />
        </mxCell>
        <mxCell id="-U--1kauAl9DVAjZG-rm-160" style="edgeStyle=orthogonalEdgeStyle;rounded=0;orthogonalLoop=1;jettySize=auto;html=1;exitX=1;exitY=0.5;exitDx=0;exitDy=0;entryX=0;entryY=0.5;entryDx=0;entryDy=0;" parent="1" source="-U--1kauAl9DVAjZG-rm-156" target="-U--1kauAl9DVAjZG-rm-159" edge="1">
          <mxGeometry relative="1" as="geometry" />
        </mxCell>
        <mxCell id="-U--1kauAl9DVAjZG-rm-179" style="edgeStyle=orthogonalEdgeStyle;rounded=0;orthogonalLoop=1;jettySize=auto;html=1;exitX=0.5;exitY=1;exitDx=0;exitDy=0;entryX=0.5;entryY=0;entryDx=0;entryDy=0;" parent="1" source="-U--1kauAl9DVAjZG-rm-156" target="-U--1kauAl9DVAjZG-rm-170" edge="1">
          <mxGeometry relative="1" as="geometry" />
        </mxCell>
        <mxCell id="-U--1kauAl9DVAjZG-rm-156" value="hit_2A" style="text;html=1;align=center;verticalAlign=middle;whiteSpace=wrap;rounded=0;fillColor=#f5f5f5;fontColor=#333333;strokeColor=#666666;" parent="1" vertex="1">
          <mxGeometry x="2910" y="329" width="80" height="30" as="geometry" />
        </mxCell>
        <mxCell id="-U--1kauAl9DVAjZG-rm-157" style="edgeStyle=orthogonalEdgeStyle;rounded=0;orthogonalLoop=1;jettySize=auto;html=1;exitX=1;exitY=0.5;exitDx=0;exitDy=0;entryX=-0.053;entryY=0.518;entryDx=0;entryDy=0;entryPerimeter=0;" parent="1" source="-U--1kauAl9DVAjZG-rm-74" target="-U--1kauAl9DVAjZG-rm-155" edge="1">
          <mxGeometry relative="1" as="geometry" />
        </mxCell>
        <mxCell id="-U--1kauAl9DVAjZG-rm-180" style="edgeStyle=orthogonalEdgeStyle;rounded=0;orthogonalLoop=1;jettySize=auto;html=1;exitX=0.5;exitY=1;exitDx=0;exitDy=0;entryX=0.5;entryY=0;entryDx=0;entryDy=0;" parent="1" source="-U--1kauAl9DVAjZG-rm-159" target="-U--1kauAl9DVAjZG-rm-174" edge="1">
          <mxGeometry relative="1" as="geometry" />
        </mxCell>
        <mxCell id="-U--1kauAl9DVAjZG-rm-159" value="hit_2B" style="text;html=1;align=center;verticalAlign=middle;whiteSpace=wrap;rounded=0;fillColor=#f5f5f5;fontColor=#333333;strokeColor=#666666;" parent="1" vertex="1">
          <mxGeometry x="3060" y="329" width="80" height="30" as="geometry" />
        </mxCell>
        <mxCell id="-U--1kauAl9DVAjZG-rm-169" style="edgeStyle=orthogonalEdgeStyle;rounded=0;orthogonalLoop=1;jettySize=auto;html=1;exitX=1;exitY=0.5;exitDx=0;exitDy=0;entryX=0;entryY=0.5;entryDx=0;entryDy=0;" parent="1" source="-U--1kauAl9DVAjZG-rm-161" target="-U--1kauAl9DVAjZG-rm-166" edge="1">
          <mxGeometry relative="1" as="geometry" />
        </mxCell>
        <mxCell id="-U--1kauAl9DVAjZG-rm-177" style="edgeStyle=orthogonalEdgeStyle;rounded=0;orthogonalLoop=1;jettySize=auto;html=1;exitX=0.5;exitY=0;exitDx=0;exitDy=0;entryX=0.5;entryY=1;entryDx=0;entryDy=0;" parent="1" source="-U--1kauAl9DVAjZG-rm-161" target="-U--1kauAl9DVAjZG-rm-175" edge="1">
          <mxGeometry relative="1" as="geometry" />
        </mxCell>
        <mxCell id="-U--1kauAl9DVAjZG-rm-161" value="addr_2A" style="text;html=1;align=center;verticalAlign=middle;whiteSpace=wrap;rounded=0;fillColor=#f5f5f5;fontColor=#333333;strokeColor=#666666;" parent="1" vertex="1">
          <mxGeometry x="2910" y="673" width="80" height="30" as="geometry" />
        </mxCell>
        <mxCell id="-U--1kauAl9DVAjZG-rm-165" style="edgeStyle=orthogonalEdgeStyle;rounded=0;orthogonalLoop=1;jettySize=auto;html=1;exitX=1;exitY=0.5;exitDx=0;exitDy=0;exitPerimeter=0;entryX=0;entryY=0.5;entryDx=0;entryDy=0;" parent="1" source="-U--1kauAl9DVAjZG-rm-162" target="-U--1kauAl9DVAjZG-rm-161" edge="1">
          <mxGeometry relative="1" as="geometry" />
        </mxCell>
        <mxCell id="-U--1kauAl9DVAjZG-rm-162" value="" style="verticalLabelPosition=bottom;shadow=0;dashed=0;align=center;html=1;verticalAlign=top;shape=mxgraph.electrical.logic_gates.logic_gate;operation=or;" parent="1" vertex="1">
          <mxGeometry x="2780" y="668" width="60" height="40" as="geometry" />
        </mxCell>
        <mxCell id="-U--1kauAl9DVAjZG-rm-163" style="edgeStyle=orthogonalEdgeStyle;rounded=0;orthogonalLoop=1;jettySize=auto;html=1;exitX=1;exitY=0.5;exitDx=0;exitDy=0;entryX=0;entryY=0.25;entryDx=0;entryDy=0;entryPerimeter=0;" parent="1" source="-U--1kauAl9DVAjZG-rm-147" target="-U--1kauAl9DVAjZG-rm-162" edge="1">
          <mxGeometry relative="1" as="geometry" />
        </mxCell>
        <mxCell id="-U--1kauAl9DVAjZG-rm-164" style="edgeStyle=orthogonalEdgeStyle;rounded=0;orthogonalLoop=1;jettySize=auto;html=1;exitX=1;exitY=0.5;exitDx=0;exitDy=0;entryX=0;entryY=0.75;entryDx=0;entryDy=0;entryPerimeter=0;" parent="1" source="-U--1kauAl9DVAjZG-rm-147" target="-U--1kauAl9DVAjZG-rm-162" edge="1">
          <mxGeometry relative="1" as="geometry" />
        </mxCell>
        <mxCell id="-U--1kauAl9DVAjZG-rm-178" style="edgeStyle=orthogonalEdgeStyle;rounded=0;orthogonalLoop=1;jettySize=auto;html=1;exitX=0.5;exitY=0;exitDx=0;exitDy=0;entryX=0.5;entryY=1;entryDx=0;entryDy=0;" parent="1" source="-U--1kauAl9DVAjZG-rm-166" target="-U--1kauAl9DVAjZG-rm-176" edge="1">
          <mxGeometry relative="1" as="geometry" />
        </mxCell>
        <mxCell id="-U--1kauAl9DVAjZG-rm-166" value="addr_2B" style="text;html=1;align=center;verticalAlign=middle;whiteSpace=wrap;rounded=0;fillColor=#f5f5f5;fontColor=#333333;strokeColor=#666666;" parent="1" vertex="1">
          <mxGeometry x="3060" y="673" width="80" height="30" as="geometry" />
        </mxCell>
        <mxCell id="-U--1kauAl9DVAjZG-rm-185" style="edgeStyle=orthogonalEdgeStyle;rounded=0;orthogonalLoop=1;jettySize=auto;html=1;exitX=0.5;exitY=1;exitDx=0;exitDy=0;entryX=0.5;entryY=1;entryDx=0;entryDy=0;" parent="1" source="-U--1kauAl9DVAjZG-rm-170" target="-U--1kauAl9DVAjZG-rm-181" edge="1">
          <mxGeometry relative="1" as="geometry">
            <Array as="points">
              <mxPoint x="2950" y="520" />
              <mxPoint x="3340" y="520" />
            </Array>
          </mxGeometry>
        </mxCell>
        <mxCell id="-U--1kauAl9DVAjZG-rm-170" value="Transition400_hit_2A" style="text;html=1;align=center;verticalAlign=middle;whiteSpace=wrap;rounded=0;fillColor=#f5f5f5;fontColor=#333333;strokeColor=#666666;" parent="1" vertex="1">
          <mxGeometry x="2890" y="409" width="120" height="30" as="geometry" />
        </mxCell>
        <mxCell id="-U--1kauAl9DVAjZG-rm-186" style="edgeStyle=orthogonalEdgeStyle;rounded=0;orthogonalLoop=1;jettySize=auto;html=1;exitX=0.5;exitY=1;exitDx=0;exitDy=0;entryX=0.5;entryY=1;entryDx=0;entryDy=0;" parent="1" source="-U--1kauAl9DVAjZG-rm-174" target="-U--1kauAl9DVAjZG-rm-182" edge="1">
          <mxGeometry relative="1" as="geometry">
            <Array as="points">
              <mxPoint x="3100" y="520" />
              <mxPoint x="3490" y="520" />
            </Array>
          </mxGeometry>
        </mxCell>
        <mxCell id="-U--1kauAl9DVAjZG-rm-174" value="Transition400_hit_2B" style="text;html=1;align=center;verticalAlign=middle;whiteSpace=wrap;rounded=0;fillColor=#f5f5f5;fontColor=#333333;strokeColor=#666666;" parent="1" vertex="1">
          <mxGeometry x="3040" y="409" width="120" height="30" as="geometry" />
        </mxCell>
        <mxCell id="-U--1kauAl9DVAjZG-rm-187" style="edgeStyle=orthogonalEdgeStyle;rounded=0;orthogonalLoop=1;jettySize=auto;html=1;exitX=0.5;exitY=0;exitDx=0;exitDy=0;entryX=0.5;entryY=0;entryDx=0;entryDy=0;" parent="1" source="-U--1kauAl9DVAjZG-rm-175" target="-U--1kauAl9DVAjZG-rm-183" edge="1">
          <mxGeometry relative="1" as="geometry">
            <Array as="points">
              <mxPoint x="2950" y="520" />
              <mxPoint x="3340" y="520" />
            </Array>
          </mxGeometry>
        </mxCell>
        <mxCell id="-U--1kauAl9DVAjZG-rm-175" value="Transition400_addr_2A" style="text;html=1;align=center;verticalAlign=middle;whiteSpace=wrap;rounded=0;fillColor=#f5f5f5;fontColor=#333333;strokeColor=#666666;" parent="1" vertex="1">
          <mxGeometry x="2880" y="610" width="140" height="30" as="geometry" />
        </mxCell>
        <mxCell id="-U--1kauAl9DVAjZG-rm-188" style="edgeStyle=orthogonalEdgeStyle;rounded=0;orthogonalLoop=1;jettySize=auto;html=1;exitX=0.5;exitY=0;exitDx=0;exitDy=0;entryX=0.5;entryY=0;entryDx=0;entryDy=0;" parent="1" source="-U--1kauAl9DVAjZG-rm-176" target="-U--1kauAl9DVAjZG-rm-184" edge="1">
          <mxGeometry relative="1" as="geometry">
            <Array as="points">
              <mxPoint x="3100" y="520" />
              <mxPoint x="3490" y="520" />
            </Array>
          </mxGeometry>
        </mxCell>
        <mxCell id="-U--1kauAl9DVAjZG-rm-189" value="COPY ACROSS CLOCK DOMAIN" style="edgeLabel;html=1;align=center;verticalAlign=middle;resizable=0;points=[];" parent="-U--1kauAl9DVAjZG-rm-188" vertex="1" connectable="0">
          <mxGeometry x="-0.3268" y="1" relative="1" as="geometry">
            <mxPoint x="18" y="1" as="offset" />
          </mxGeometry>
        </mxCell>
        <mxCell id="-U--1kauAl9DVAjZG-rm-176" value="Transition400_addr_2B" style="text;html=1;align=center;verticalAlign=middle;whiteSpace=wrap;rounded=0;fillColor=#f5f5f5;fontColor=#333333;strokeColor=#666666;" parent="1" vertex="1">
          <mxGeometry x="3030" y="610" width="140" height="30" as="geometry" />
        </mxCell>
        <mxCell id="-U--1kauAl9DVAjZG-rm-181" value="Transition200_hit_2A" style="text;html=1;align=center;verticalAlign=middle;whiteSpace=wrap;rounded=0;fillColor=#f5f5f5;fontColor=#333333;strokeColor=#666666;" parent="1" vertex="1">
          <mxGeometry x="3280" y="409" width="120" height="30" as="geometry" />
        </mxCell>
        <mxCell id="-U--1kauAl9DVAjZG-rm-182" value="Transition200_hit_2B" style="text;html=1;align=center;verticalAlign=middle;whiteSpace=wrap;rounded=0;fillColor=#f5f5f5;fontColor=#333333;strokeColor=#666666;" parent="1" vertex="1">
          <mxGeometry x="3430" y="409" width="120" height="30" as="geometry" />
        </mxCell>
        <mxCell id="-U--1kauAl9DVAjZG-rm-183" value="Transition200_addr_2A" style="text;html=1;align=center;verticalAlign=middle;whiteSpace=wrap;rounded=0;fillColor=#f5f5f5;fontColor=#333333;strokeColor=#666666;" parent="1" vertex="1">
          <mxGeometry x="3270" y="610" width="140" height="30" as="geometry" />
        </mxCell>
        <mxCell id="-U--1kauAl9DVAjZG-rm-184" value="Transition200_addr_2B" style="text;html=1;align=center;verticalAlign=middle;whiteSpace=wrap;rounded=0;fillColor=#f5f5f5;fontColor=#333333;strokeColor=#666666;" parent="1" vertex="1">
          <mxGeometry x="3420" y="610" width="140" height="30" as="geometry" />
        </mxCell>
        <mxCell id="-U--1kauAl9DVAjZG-rm-202" value="scaler_hit" style="text;html=1;align=center;verticalAlign=middle;whiteSpace=wrap;rounded=0;fillColor=#f5f5f5;fontColor=#333333;strokeColor=#666666;" parent="1" vertex="1">
          <mxGeometry x="3850" y="308.5" width="80" height="30" as="geometry" />
        </mxCell>
        <mxCell id="-U--1kauAl9DVAjZG-rm-209" value="enable" style="text;html=1;align=center;verticalAlign=middle;whiteSpace=wrap;rounded=0;fillColor=#f5f5f5;fontColor=#333333;strokeColor=#666666;" parent="1" vertex="1">
          <mxGeometry x="3570" y="100" width="60" height="30" as="geometry" />
        </mxCell>
        <mxCell id="-U--1kauAl9DVAjZG-rm-214" style="edgeStyle=orthogonalEdgeStyle;rounded=0;orthogonalLoop=1;jettySize=auto;html=1;exitX=1;exitY=0.5;exitDx=0;exitDy=0;exitPerimeter=0;" parent="1" source="-U--1kauAl9DVAjZG-rm-210" target="-U--1kauAl9DVAjZG-rm-213" edge="1">
          <mxGeometry relative="1" as="geometry" />
        </mxCell>
        <mxCell id="-U--1kauAl9DVAjZG-rm-210" value="" style="verticalLabelPosition=bottom;shadow=0;dashed=0;align=center;html=1;verticalAlign=top;shape=mxgraph.electrical.logic_gates.logic_gate;operation=and;negating=1;negSize=0.15;" parent="1" vertex="1">
          <mxGeometry x="3700" y="108" width="50" height="30" as="geometry" />
        </mxCell>
        <mxCell id="-U--1kauAl9DVAjZG-rm-212" style="edgeStyle=orthogonalEdgeStyle;rounded=0;orthogonalLoop=1;jettySize=auto;html=1;exitX=1;exitY=0.5;exitDx=0;exitDy=0;entryX=0;entryY=0.25;entryDx=0;entryDy=0;entryPerimeter=0;" parent="1" source="-U--1kauAl9DVAjZG-rm-209" target="-U--1kauAl9DVAjZG-rm-210" edge="1">
          <mxGeometry relative="1" as="geometry" />
        </mxCell>
        <mxCell id="-U--1kauAl9DVAjZG-rm-213" value="tdc_hit" style="text;html=1;align=center;verticalAlign=middle;whiteSpace=wrap;rounded=0;fillColor=#f5f5f5;fontColor=#333333;strokeColor=#666666;" parent="1" vertex="1">
          <mxGeometry x="3850" y="108" width="80" height="30" as="geometry" />
        </mxCell>
        <mxCell id="-U--1kauAl9DVAjZG-rm-217" value="code[9:0]" style="text;html=1;align=center;verticalAlign=middle;whiteSpace=wrap;rounded=0;fillColor=#f5f5f5;fontColor=#333333;strokeColor=#666666;" parent="1" vertex="1">
          <mxGeometry x="3850" y="509" width="80" height="30" as="geometry" />
        </mxCell>
        <mxCell id="-U--1kauAl9DVAjZG-rm-219" value="{hit_A&amp;amp;enable,1&#39;b0,addr_A}" style="text;html=1;align=center;verticalAlign=middle;whiteSpace=wrap;rounded=0;fillColor=#f5f5f5;fontColor=#333333;strokeColor=#666666;" parent="1" vertex="1">
          <mxGeometry x="3550" y="539" width="160" height="30" as="geometry" />
        </mxCell>
        <mxCell id="-U--1kauAl9DVAjZG-rm-220" value="{hit_B&amp;amp;enable,1&#39;b1,addr_B}" style="text;html=1;align=center;verticalAlign=middle;whiteSpace=wrap;rounded=0;fillColor=#f5f5f5;fontColor=#333333;strokeColor=#666666;" parent="1" vertex="1">
          <mxGeometry x="3550" y="479" width="160" height="30" as="geometry" />
        </mxCell>
        <mxCell id="-U--1kauAl9DVAjZG-rm-229" value="" style="shape=table;startSize=0;container=1;collapsible=0;childLayout=tableLayout;fontSize=16;" parent="1" vertex="1">
          <mxGeometry x="390" y="820" width="1445" height="40" as="geometry" />
        </mxCell>
        <mxCell id="-U--1kauAl9DVAjZG-rm-230" value="" style="shape=tableRow;horizontal=0;startSize=0;swimlaneHead=0;swimlaneBody=0;strokeColor=inherit;top=0;left=0;bottom=0;right=0;collapsible=0;dropTarget=0;fillColor=none;points=[[0,0.5],[1,0.5]];portConstraint=eastwest;fontSize=16;" parent="-U--1kauAl9DVAjZG-rm-229" vertex="1">
          <mxGeometry width="1445" height="40" as="geometry" />
        </mxCell>
        <mxCell id="-U--1kauAl9DVAjZG-rm-231" value="95:92" style="shape=partialRectangle;html=1;whiteSpace=wrap;connectable=0;strokeColor=inherit;overflow=hidden;fillColor=none;top=0;left=0;bottom=0;right=0;pointerEvents=1;fontSize=16;" parent="-U--1kauAl9DVAjZG-rm-230" vertex="1">
          <mxGeometry width="60" height="40" as="geometry">
            <mxRectangle width="60" height="40" as="alternateBounds" />
          </mxGeometry>
        </mxCell>
        <mxCell id="-U--1kauAl9DVAjZG-rm-232" value="91:88" style="shape=partialRectangle;html=1;whiteSpace=wrap;connectable=0;strokeColor=inherit;overflow=hidden;fillColor=none;top=0;left=0;bottom=0;right=0;pointerEvents=1;fontSize=16;" parent="-U--1kauAl9DVAjZG-rm-230" vertex="1">
          <mxGeometry x="60" width="60" height="40" as="geometry">
            <mxRectangle width="60" height="40" as="alternateBounds" />
          </mxGeometry>
        </mxCell>
        <mxCell id="-U--1kauAl9DVAjZG-rm-265" value="87:84" style="shape=partialRectangle;html=1;whiteSpace=wrap;connectable=0;strokeColor=inherit;overflow=hidden;fillColor=none;top=0;left=0;bottom=0;right=0;pointerEvents=1;fontSize=16;" parent="-U--1kauAl9DVAjZG-rm-230" vertex="1">
          <mxGeometry x="120" width="60" height="40" as="geometry">
            <mxRectangle width="60" height="40" as="alternateBounds" />
          </mxGeometry>
        </mxCell>
        <mxCell id="-U--1kauAl9DVAjZG-rm-264" value="83:80" style="shape=partialRectangle;html=1;whiteSpace=wrap;connectable=0;strokeColor=inherit;overflow=hidden;fillColor=none;top=0;left=0;bottom=0;right=0;pointerEvents=1;fontSize=16;" parent="-U--1kauAl9DVAjZG-rm-230" vertex="1">
          <mxGeometry x="180" width="60" height="40" as="geometry">
            <mxRectangle width="60" height="40" as="alternateBounds" />
          </mxGeometry>
        </mxCell>
        <mxCell id="-U--1kauAl9DVAjZG-rm-263" value="79:76" style="shape=partialRectangle;html=1;whiteSpace=wrap;connectable=0;strokeColor=inherit;overflow=hidden;fillColor=none;top=0;left=0;bottom=0;right=0;pointerEvents=1;fontSize=16;" parent="-U--1kauAl9DVAjZG-rm-230" vertex="1">
          <mxGeometry x="240" width="60" height="40" as="geometry">
            <mxRectangle width="60" height="40" as="alternateBounds" />
          </mxGeometry>
        </mxCell>
        <mxCell id="-U--1kauAl9DVAjZG-rm-262" value="75:72" style="shape=partialRectangle;html=1;whiteSpace=wrap;connectable=0;strokeColor=inherit;overflow=hidden;fillColor=none;top=0;left=0;bottom=0;right=0;pointerEvents=1;fontSize=16;" parent="-U--1kauAl9DVAjZG-rm-230" vertex="1">
          <mxGeometry x="300" width="60" height="40" as="geometry">
            <mxRectangle width="60" height="40" as="alternateBounds" />
          </mxGeometry>
        </mxCell>
        <mxCell id="-U--1kauAl9DVAjZG-rm-261" value="71:68" style="shape=partialRectangle;html=1;whiteSpace=wrap;connectable=0;strokeColor=inherit;overflow=hidden;fillColor=none;top=0;left=0;bottom=0;right=0;pointerEvents=1;fontSize=16;" parent="-U--1kauAl9DVAjZG-rm-230" vertex="1">
          <mxGeometry x="360" width="60" height="40" as="geometry">
            <mxRectangle width="60" height="40" as="alternateBounds" />
          </mxGeometry>
        </mxCell>
        <mxCell id="-U--1kauAl9DVAjZG-rm-260" value="67:64" style="shape=partialRectangle;html=1;whiteSpace=wrap;connectable=0;strokeColor=inherit;overflow=hidden;fillColor=none;top=0;left=0;bottom=0;right=0;pointerEvents=1;fontSize=16;" parent="-U--1kauAl9DVAjZG-rm-230" vertex="1">
          <mxGeometry x="420" width="60" height="40" as="geometry">
            <mxRectangle width="60" height="40" as="alternateBounds" />
          </mxGeometry>
        </mxCell>
        <mxCell id="-U--1kauAl9DVAjZG-rm-259" value="63:60" style="shape=partialRectangle;html=1;whiteSpace=wrap;connectable=0;strokeColor=inherit;overflow=hidden;fillColor=none;top=0;left=0;bottom=0;right=0;pointerEvents=1;fontSize=16;" parent="-U--1kauAl9DVAjZG-rm-230" vertex="1">
          <mxGeometry x="480" width="60" height="40" as="geometry">
            <mxRectangle width="60" height="40" as="alternateBounds" />
          </mxGeometry>
        </mxCell>
        <mxCell id="-U--1kauAl9DVAjZG-rm-258" value="59:56" style="shape=partialRectangle;html=1;whiteSpace=wrap;connectable=0;strokeColor=inherit;overflow=hidden;fillColor=none;top=0;left=0;bottom=0;right=0;pointerEvents=1;fontSize=16;" parent="-U--1kauAl9DVAjZG-rm-230" vertex="1">
          <mxGeometry x="540" width="60" height="40" as="geometry">
            <mxRectangle width="60" height="40" as="alternateBounds" />
          </mxGeometry>
        </mxCell>
        <mxCell id="-U--1kauAl9DVAjZG-rm-257" value="55:52" style="shape=partialRectangle;html=1;whiteSpace=wrap;connectable=0;strokeColor=inherit;overflow=hidden;fillColor=none;top=0;left=0;bottom=0;right=0;pointerEvents=1;fontSize=16;" parent="-U--1kauAl9DVAjZG-rm-230" vertex="1">
          <mxGeometry x="600" width="60" height="40" as="geometry">
            <mxRectangle width="60" height="40" as="alternateBounds" />
          </mxGeometry>
        </mxCell>
        <mxCell id="-U--1kauAl9DVAjZG-rm-256" value="51:48" style="shape=partialRectangle;html=1;whiteSpace=wrap;connectable=0;strokeColor=inherit;overflow=hidden;fillColor=none;top=0;left=0;bottom=0;right=0;pointerEvents=1;fontSize=16;" parent="-U--1kauAl9DVAjZG-rm-230" vertex="1">
          <mxGeometry x="660" width="60" height="40" as="geometry">
            <mxRectangle width="60" height="40" as="alternateBounds" />
          </mxGeometry>
        </mxCell>
        <mxCell id="-U--1kauAl9DVAjZG-rm-255" value="47:44" style="shape=partialRectangle;html=1;whiteSpace=wrap;connectable=0;strokeColor=inherit;overflow=hidden;fillColor=none;top=0;left=0;bottom=0;right=0;pointerEvents=1;fontSize=16;" parent="-U--1kauAl9DVAjZG-rm-230" vertex="1">
          <mxGeometry x="720" width="60" height="40" as="geometry">
            <mxRectangle width="60" height="40" as="alternateBounds" />
          </mxGeometry>
        </mxCell>
        <mxCell id="-U--1kauAl9DVAjZG-rm-254" value="43:40" style="shape=partialRectangle;html=1;whiteSpace=wrap;connectable=0;strokeColor=inherit;overflow=hidden;fillColor=none;top=0;left=0;bottom=0;right=0;pointerEvents=1;fontSize=16;" parent="-U--1kauAl9DVAjZG-rm-230" vertex="1">
          <mxGeometry x="780" width="60" height="40" as="geometry">
            <mxRectangle width="60" height="40" as="alternateBounds" />
          </mxGeometry>
        </mxCell>
        <mxCell id="-U--1kauAl9DVAjZG-rm-253" value="39:36" style="shape=partialRectangle;html=1;whiteSpace=wrap;connectable=0;strokeColor=inherit;overflow=hidden;fillColor=none;top=0;left=0;bottom=0;right=0;pointerEvents=1;fontSize=16;" parent="-U--1kauAl9DVAjZG-rm-230" vertex="1">
          <mxGeometry x="840" width="60" height="40" as="geometry">
            <mxRectangle width="60" height="40" as="alternateBounds" />
          </mxGeometry>
        </mxCell>
        <mxCell id="-U--1kauAl9DVAjZG-rm-252" value="35:32" style="shape=partialRectangle;html=1;whiteSpace=wrap;connectable=0;strokeColor=inherit;overflow=hidden;fillColor=none;top=0;left=0;bottom=0;right=0;pointerEvents=1;fontSize=16;" parent="-U--1kauAl9DVAjZG-rm-230" vertex="1">
          <mxGeometry x="900" width="60" height="40" as="geometry">
            <mxRectangle width="60" height="40" as="alternateBounds" />
          </mxGeometry>
        </mxCell>
        <mxCell id="-U--1kauAl9DVAjZG-rm-251" value="31:28" style="shape=partialRectangle;html=1;whiteSpace=wrap;connectable=0;strokeColor=inherit;overflow=hidden;fillColor=none;top=0;left=0;bottom=0;right=0;pointerEvents=1;fontSize=16;" parent="-U--1kauAl9DVAjZG-rm-230" vertex="1">
          <mxGeometry x="960" width="60" height="40" as="geometry">
            <mxRectangle width="60" height="40" as="alternateBounds" />
          </mxGeometry>
        </mxCell>
        <mxCell id="-U--1kauAl9DVAjZG-rm-250" value="27:24" style="shape=partialRectangle;html=1;whiteSpace=wrap;connectable=0;strokeColor=inherit;overflow=hidden;fillColor=none;top=0;left=0;bottom=0;right=0;pointerEvents=1;fontSize=16;" parent="-U--1kauAl9DVAjZG-rm-230" vertex="1">
          <mxGeometry x="1020" width="60" height="40" as="geometry">
            <mxRectangle width="60" height="40" as="alternateBounds" />
          </mxGeometry>
        </mxCell>
        <mxCell id="-U--1kauAl9DVAjZG-rm-290" value="23:20" style="shape=partialRectangle;html=1;whiteSpace=wrap;connectable=0;strokeColor=inherit;overflow=hidden;fillColor=none;top=0;left=0;bottom=0;right=0;pointerEvents=1;fontSize=16;" parent="-U--1kauAl9DVAjZG-rm-230" vertex="1">
          <mxGeometry x="1080" width="65" height="40" as="geometry">
            <mxRectangle width="65" height="40" as="alternateBounds" />
          </mxGeometry>
        </mxCell>
        <mxCell id="-U--1kauAl9DVAjZG-rm-289" value="19:16" style="shape=partialRectangle;html=1;whiteSpace=wrap;connectable=0;strokeColor=inherit;overflow=hidden;fillColor=none;top=0;left=0;bottom=0;right=0;pointerEvents=1;fontSize=16;" parent="-U--1kauAl9DVAjZG-rm-230" vertex="1">
          <mxGeometry x="1145" width="60" height="40" as="geometry">
            <mxRectangle width="60" height="40" as="alternateBounds" />
          </mxGeometry>
        </mxCell>
        <mxCell id="-U--1kauAl9DVAjZG-rm-288" value="15:12" style="shape=partialRectangle;html=1;whiteSpace=wrap;connectable=0;strokeColor=inherit;overflow=hidden;fillColor=none;top=0;left=0;bottom=0;right=0;pointerEvents=1;fontSize=16;" parent="-U--1kauAl9DVAjZG-rm-230" vertex="1">
          <mxGeometry x="1205" width="60" height="40" as="geometry">
            <mxRectangle width="60" height="40" as="alternateBounds" />
          </mxGeometry>
        </mxCell>
        <mxCell id="-U--1kauAl9DVAjZG-rm-296" value="11:8" style="shape=partialRectangle;html=1;whiteSpace=wrap;connectable=0;strokeColor=inherit;overflow=hidden;fillColor=none;top=0;left=0;bottom=0;right=0;pointerEvents=1;fontSize=16;" parent="-U--1kauAl9DVAjZG-rm-230" vertex="1">
          <mxGeometry x="1265" width="60" height="40" as="geometry">
            <mxRectangle width="60" height="40" as="alternateBounds" />
          </mxGeometry>
        </mxCell>
        <mxCell id="-U--1kauAl9DVAjZG-rm-297" value="7:4" style="shape=partialRectangle;html=1;whiteSpace=wrap;connectable=0;strokeColor=inherit;overflow=hidden;fillColor=none;top=0;left=0;bottom=0;right=0;pointerEvents=1;fontSize=16;" parent="-U--1kauAl9DVAjZG-rm-230" vertex="1">
          <mxGeometry x="1325" width="60" height="40" as="geometry">
            <mxRectangle width="60" height="40" as="alternateBounds" />
          </mxGeometry>
        </mxCell>
        <mxCell id="-U--1kauAl9DVAjZG-rm-298" value="3:0" style="shape=partialRectangle;html=1;whiteSpace=wrap;connectable=0;strokeColor=inherit;overflow=hidden;fillColor=none;top=0;left=0;bottom=0;right=0;pointerEvents=1;fontSize=16;" parent="-U--1kauAl9DVAjZG-rm-230" vertex="1">
          <mxGeometry x="1385" width="60" height="40" as="geometry">
            <mxRectangle width="60" height="40" as="alternateBounds" />
          </mxGeometry>
        </mxCell>
        <mxCell id="-U--1kauAl9DVAjZG-rm-301" value="addr [1:0]" style="text;html=1;align=center;verticalAlign=middle;whiteSpace=wrap;rounded=0;fillColor=#fff2cc;strokeColor=#d6b656;" parent="1" vertex="1">
          <mxGeometry x="240" y="827" width="100" height="30" as="geometry" />
        </mxCell>
        <mxCell id="-U--1kauAl9DVAjZG-rm-302" style="edgeStyle=orthogonalEdgeStyle;rounded=0;orthogonalLoop=1;jettySize=auto;html=1;exitX=0.5;exitY=1;exitDx=0;exitDy=0;" parent="1" edge="1">
          <mxGeometry relative="1" as="geometry">
            <mxPoint x="480" y="900" as="sourcePoint" />
            <mxPoint x="480" y="900" as="targetPoint" />
          </mxGeometry>
        </mxCell>
        <mxCell id="-U--1kauAl9DVAjZG-rm-308" value="addr [2]" style="text;html=1;align=center;verticalAlign=middle;whiteSpace=wrap;rounded=0;fillColor=#fff2cc;strokeColor=#d6b656;" parent="1" vertex="1">
          <mxGeometry x="240" y="790" width="100" height="30" as="geometry" />
        </mxCell>
        <mxCell id="-U--1kauAl9DVAjZG-rm-392" value="addr [3]" style="text;html=1;align=center;verticalAlign=middle;whiteSpace=wrap;rounded=0;fillColor=#fff2cc;strokeColor=#d6b656;" parent="1" vertex="1">
          <mxGeometry x="240" y="890" width="100" height="30" as="geometry" />
        </mxCell>
        <mxCell id="-U--1kauAl9DVAjZG-rm-403" value="" style="endArrow=none;html=1;rounded=0;exitX=0;exitY=0;exitDx=0;exitDy=0;" parent="1" source="-U--1kauAl9DVAjZG-rm-474" edge="1">
          <mxGeometry width="50" height="50" relative="1" as="geometry">
            <mxPoint x="480" y="940" as="sourcePoint" />
            <mxPoint x="480" y="860" as="targetPoint" />
          </mxGeometry>
        </mxCell>
        <mxCell id="-U--1kauAl9DVAjZG-rm-437" value="addr [4]" style="text;html=1;align=center;verticalAlign=middle;whiteSpace=wrap;rounded=0;fillColor=#fff2cc;strokeColor=#d6b656;" parent="1" vertex="1">
          <mxGeometry x="240" y="950" width="100" height="30" as="geometry" />
        </mxCell>
        <mxCell id="-U--1kauAl9DVAjZG-rm-438" value="hitmap[1:0]" style="text;html=1;align=center;verticalAlign=middle;whiteSpace=wrap;rounded=0;fillColor=#fff2cc;strokeColor=#d6b656;" parent="1" vertex="1">
          <mxGeometry x="240" y="1010" width="100" height="30" as="geometry" />
        </mxCell>
        <mxCell id="-U--1kauAl9DVAjZG-rm-450" style="edgeStyle=orthogonalEdgeStyle;rounded=0;orthogonalLoop=1;jettySize=auto;html=1;exitX=1;exitY=0.5;exitDx=0;exitDy=0;entryX=0;entryY=0.5;entryDx=0;entryDy=0;" parent="1" source="-U--1kauAl9DVAjZG-rm-446" target="-U--1kauAl9DVAjZG-rm-445" edge="1">
          <mxGeometry relative="1" as="geometry" />
        </mxCell>
        <mxCell id="-U--1kauAl9DVAjZG-rm-446" value="code" style="text;html=1;align=center;verticalAlign=middle;whiteSpace=wrap;rounded=0;fillColor=#dae8fc;strokeColor=#6c8ebf;" parent="1" vertex="1">
          <mxGeometry x="240" y="1090" width="100" height="30" as="geometry" />
        </mxCell>
        <mxCell id="-U--1kauAl9DVAjZG-rm-451" value="" style="group" parent="1" vertex="1" connectable="0">
          <mxGeometry x="450" y="1090" width="700" height="30" as="geometry" />
        </mxCell>
        <mxCell id="-U--1kauAl9DVAjZG-rm-439" value="hitmap[2:0]" style="text;html=1;align=center;verticalAlign=middle;whiteSpace=wrap;rounded=0;fillColor=#fff2cc;strokeColor=#d6b656;" parent="-U--1kauAl9DVAjZG-rm-451" vertex="1">
          <mxGeometry x="200" width="100" height="30" as="geometry" />
        </mxCell>
        <mxCell id="-U--1kauAl9DVAjZG-rm-440" value="addr [4]" style="text;html=1;align=center;verticalAlign=middle;whiteSpace=wrap;rounded=0;fillColor=#fff2cc;strokeColor=#d6b656;" parent="-U--1kauAl9DVAjZG-rm-451" vertex="1">
          <mxGeometry x="300" width="100" height="30" as="geometry" />
        </mxCell>
        <mxCell id="-U--1kauAl9DVAjZG-rm-441" value="addr [3]" style="text;html=1;align=center;verticalAlign=middle;whiteSpace=wrap;rounded=0;fillColor=#fff2cc;strokeColor=#d6b656;" parent="-U--1kauAl9DVAjZG-rm-451" vertex="1">
          <mxGeometry x="400" width="100" height="30" as="geometry" />
        </mxCell>
        <mxCell id="-U--1kauAl9DVAjZG-rm-442" value="addr [2]" style="text;html=1;align=center;verticalAlign=middle;whiteSpace=wrap;rounded=0;fillColor=#fff2cc;strokeColor=#d6b656;" parent="-U--1kauAl9DVAjZG-rm-451" vertex="1">
          <mxGeometry x="500" width="100" height="30" as="geometry" />
        </mxCell>
        <mxCell id="-U--1kauAl9DVAjZG-rm-443" value="addr [1:0]" style="text;html=1;align=center;verticalAlign=middle;whiteSpace=wrap;rounded=0;fillColor=#fff2cc;strokeColor=#d6b656;" parent="-U--1kauAl9DVAjZG-rm-451" vertex="1">
          <mxGeometry x="600" width="100" height="30" as="geometry" />
        </mxCell>
        <mxCell id="-U--1kauAl9DVAjZG-rm-444" value="hit_pulse" style="text;html=1;align=center;verticalAlign=middle;whiteSpace=wrap;rounded=0;fillColor=#d5e8d4;strokeColor=#82b366;" parent="-U--1kauAl9DVAjZG-rm-451" vertex="1">
          <mxGeometry x="100" width="100" height="30" as="geometry" />
        </mxCell>
        <mxCell id="-U--1kauAl9DVAjZG-rm-445" value="hit_valid" style="text;html=1;align=center;verticalAlign=middle;whiteSpace=wrap;rounded=0;fillColor=#dae8fc;strokeColor=#6c8ebf;" parent="-U--1kauAl9DVAjZG-rm-451" vertex="1">
          <mxGeometry width="100" height="30" as="geometry" />
        </mxCell>
        <mxCell id="-U--1kauAl9DVAjZG-rm-453" value="" style="shape=partialRectangle;whiteSpace=wrap;html=1;bottom=1;right=1;left=1;top=0;fillColor=none;routingCenterX=-0.5;" parent="1" vertex="1">
          <mxGeometry x="540" y="860" width="61" height="60" as="geometry" />
        </mxCell>
        <mxCell id="-U--1kauAl9DVAjZG-rm-456" style="edgeStyle=orthogonalEdgeStyle;rounded=0;orthogonalLoop=1;jettySize=auto;html=1;exitX=0.5;exitY=1;exitDx=0;exitDy=0;" parent="1" source="-U--1kauAl9DVAjZG-rm-453" target="-U--1kauAl9DVAjZG-rm-453" edge="1">
          <mxGeometry relative="1" as="geometry" />
        </mxCell>
        <mxCell id="-U--1kauAl9DVAjZG-rm-458" value="" style="shape=partialRectangle;whiteSpace=wrap;html=1;bottom=1;right=1;left=1;top=0;fillColor=none;routingCenterX=-0.5;" parent="1" vertex="1">
          <mxGeometry x="660" y="860" width="60" height="60" as="geometry" />
        </mxCell>
        <mxCell id="-U--1kauAl9DVAjZG-rm-459" value="" style="shape=partialRectangle;whiteSpace=wrap;html=1;bottom=1;right=1;left=1;top=0;fillColor=none;routingCenterX=-0.5;" parent="1" vertex="1">
          <mxGeometry x="780" y="860" width="60" height="60" as="geometry" />
        </mxCell>
        <mxCell id="-U--1kauAl9DVAjZG-rm-460" value="" style="shape=partialRectangle;whiteSpace=wrap;html=1;bottom=1;right=1;left=1;top=0;fillColor=none;routingCenterX=-0.5;" parent="1" vertex="1">
          <mxGeometry x="900" y="860" width="60" height="60" as="geometry" />
        </mxCell>
        <mxCell id="-U--1kauAl9DVAjZG-rm-461" value="" style="shape=partialRectangle;whiteSpace=wrap;html=1;bottom=1;right=1;left=1;top=0;fillColor=none;routingCenterX=-0.5;" parent="1" vertex="1">
          <mxGeometry x="1020" y="860" width="60" height="60" as="geometry" />
        </mxCell>
        <mxCell id="-U--1kauAl9DVAjZG-rm-462" value="" style="shape=partialRectangle;whiteSpace=wrap;html=1;bottom=1;right=1;left=1;top=0;fillColor=none;routingCenterX=-0.5;" parent="1" vertex="1">
          <mxGeometry x="1140" y="860" width="60" height="60" as="geometry" />
        </mxCell>
        <mxCell id="-U--1kauAl9DVAjZG-rm-463" value="" style="shape=partialRectangle;whiteSpace=wrap;html=1;bottom=1;right=1;left=1;top=0;fillColor=none;routingCenterX=-0.5;" parent="1" vertex="1">
          <mxGeometry x="1260" y="860" width="60" height="60" as="geometry" />
        </mxCell>
        <mxCell id="-U--1kauAl9DVAjZG-rm-465" value="" style="shape=partialRectangle;whiteSpace=wrap;html=1;bottom=1;right=1;left=1;top=0;fillColor=none;routingCenterX=-0.5;" parent="1" vertex="1">
          <mxGeometry x="1380" y="860" width="60" height="60" as="geometry" />
        </mxCell>
        <mxCell id="-U--1kauAl9DVAjZG-rm-466" value="" style="shape=partialRectangle;whiteSpace=wrap;html=1;bottom=1;right=1;left=1;top=0;fillColor=none;routingCenterX=-0.5;" parent="1" vertex="1">
          <mxGeometry x="1500" y="860" width="60" height="60" as="geometry" />
        </mxCell>
        <mxCell id="-U--1kauAl9DVAjZG-rm-467" value="" style="shape=partialRectangle;whiteSpace=wrap;html=1;bottom=1;right=1;left=1;top=0;fillColor=none;routingCenterX=-0.5;" parent="1" vertex="1">
          <mxGeometry x="1620" y="860" width="60" height="60" as="geometry" />
        </mxCell>
        <mxCell id="-U--1kauAl9DVAjZG-rm-469" value="" style="shape=partialRectangle;whiteSpace=wrap;html=1;bottom=1;right=1;left=1;top=0;fillColor=none;routingCenterX=-0.5;" parent="1" vertex="1">
          <mxGeometry x="570" y="920" width="120" height="60" as="geometry" />
        </mxCell>
        <mxCell id="-U--1kauAl9DVAjZG-rm-470" value="" style="shape=partialRectangle;whiteSpace=wrap;html=1;bottom=1;right=1;left=1;top=0;fillColor=none;routingCenterX=-0.5;" parent="1" vertex="1">
          <mxGeometry x="810" y="920" width="120" height="60" as="geometry" />
        </mxCell>
        <mxCell id="-U--1kauAl9DVAjZG-rm-471" value="" style="shape=partialRectangle;whiteSpace=wrap;html=1;bottom=1;right=1;left=1;top=0;fillColor=none;routingCenterX=-0.5;" parent="1" vertex="1">
          <mxGeometry x="1050" y="920" width="120" height="60" as="geometry" />
        </mxCell>
        <mxCell id="-U--1kauAl9DVAjZG-rm-472" value="" style="shape=partialRectangle;whiteSpace=wrap;html=1;bottom=1;right=1;left=1;top=0;fillColor=none;routingCenterX=-0.5;" parent="1" vertex="1">
          <mxGeometry x="1290" y="920" width="120" height="60" as="geometry" />
        </mxCell>
        <mxCell id="-U--1kauAl9DVAjZG-rm-473" value="" style="shape=partialRectangle;whiteSpace=wrap;html=1;bottom=1;right=1;left=1;top=0;fillColor=none;routingCenterX=-0.5;" parent="1" vertex="1">
          <mxGeometry x="1530" y="920" width="120" height="60" as="geometry" />
        </mxCell>
        <mxCell id="-U--1kauAl9DVAjZG-rm-474" value="" style="shape=partialRectangle;whiteSpace=wrap;html=1;bottom=1;right=1;left=1;top=0;fillColor=none;routingCenterX=-0.5;" parent="1" vertex="1">
          <mxGeometry x="480" y="980" width="150" height="60" as="geometry" />
        </mxCell>
        <mxCell id="-U--1kauAl9DVAjZG-rm-476" value="" style="shape=partialRectangle;whiteSpace=wrap;html=1;bottom=1;right=1;left=1;top=0;fillColor=none;routingCenterX=-0.5;" parent="1" vertex="1">
          <mxGeometry x="870" y="980" width="241" height="60" as="geometry" />
        </mxCell>
        <mxCell id="-U--1kauAl9DVAjZG-rm-477" value="" style="shape=partialRectangle;whiteSpace=wrap;html=1;bottom=1;right=1;left=1;top=0;fillColor=none;routingCenterX=-0.5;" parent="1" vertex="1">
          <mxGeometry x="1350" y="980" width="241" height="60" as="geometry" />
        </mxCell>
        <mxCell id="-U--1kauAl9DVAjZG-rm-480" value="10" style="text;html=1;align=center;verticalAlign=middle;whiteSpace=wrap;rounded=0;" parent="1" vertex="1">
          <mxGeometry x="525" y="1010" width="60" height="30" as="geometry" />
        </mxCell>
        <mxCell id="-U--1kauAl9DVAjZG-rm-481" value="01" style="text;html=1;align=center;verticalAlign=middle;whiteSpace=wrap;rounded=0;" parent="1" vertex="1">
          <mxGeometry x="960" y="1010" width="60" height="30" as="geometry" />
        </mxCell>
        <mxCell id="-U--1kauAl9DVAjZG-rm-482" value="00" style="text;html=1;align=center;verticalAlign=middle;whiteSpace=wrap;rounded=0;" parent="1" vertex="1">
          <mxGeometry x="1440.5" y="1010" width="60" height="30" as="geometry" />
        </mxCell>
        <mxCell id="-U--1kauAl9DVAjZG-rm-483" value="0" style="text;html=1;align=center;verticalAlign=middle;whiteSpace=wrap;rounded=0;" parent="1" vertex="1">
          <mxGeometry x="1560" y="950" width="60" height="30" as="geometry" />
        </mxCell>
        <mxCell id="-U--1kauAl9DVAjZG-rm-484" value="1" style="text;html=1;align=center;verticalAlign=middle;whiteSpace=wrap;rounded=0;" parent="1" vertex="1">
          <mxGeometry x="1320" y="950" width="60" height="30" as="geometry" />
        </mxCell>
        <mxCell id="-U--1kauAl9DVAjZG-rm-485" value="0" style="text;html=1;align=center;verticalAlign=middle;whiteSpace=wrap;rounded=0;" parent="1" vertex="1">
          <mxGeometry x="1080" y="950" width="60" height="30" as="geometry" />
        </mxCell>
        <mxCell id="-U--1kauAl9DVAjZG-rm-486" value="1" style="text;html=1;align=center;verticalAlign=middle;whiteSpace=wrap;rounded=0;" parent="1" vertex="1">
          <mxGeometry x="840" y="950" width="60" height="30" as="geometry" />
        </mxCell>
        <mxCell id="-U--1kauAl9DVAjZG-rm-487" value="0" style="text;html=1;align=center;verticalAlign=middle;whiteSpace=wrap;rounded=0;" parent="1" vertex="1">
          <mxGeometry x="600" y="950" width="60" height="30" as="geometry" />
        </mxCell>
        <mxCell id="-U--1kauAl9DVAjZG-rm-488" value="1" style="text;html=1;align=center;verticalAlign=middle;whiteSpace=wrap;rounded=0;" parent="1" vertex="1">
          <mxGeometry x="420" y="950" width="60" height="30" as="geometry" />
        </mxCell>
        <mxCell id="-U--1kauAl9DVAjZG-rm-489" value="0" style="text;html=1;align=center;verticalAlign=middle;whiteSpace=wrap;rounded=0;" parent="1" vertex="1">
          <mxGeometry x="1620" y="890" width="60" height="30" as="geometry" />
        </mxCell>
        <mxCell id="-U--1kauAl9DVAjZG-rm-490" value="1" style="text;html=1;align=center;verticalAlign=middle;whiteSpace=wrap;rounded=0;" parent="1" vertex="1">
          <mxGeometry x="1500" y="890" width="60" height="30" as="geometry" />
        </mxCell>
        <mxCell id="-U--1kauAl9DVAjZG-rm-491" value="0" style="text;html=1;align=center;verticalAlign=middle;whiteSpace=wrap;rounded=0;" parent="1" vertex="1">
          <mxGeometry x="1380" y="890" width="60" height="30" as="geometry" />
        </mxCell>
        <mxCell id="-U--1kauAl9DVAjZG-rm-492" value="1" style="text;html=1;align=center;verticalAlign=middle;whiteSpace=wrap;rounded=0;" parent="1" vertex="1">
          <mxGeometry x="1260" y="890" width="60" height="30" as="geometry" />
        </mxCell>
        <mxCell id="-U--1kauAl9DVAjZG-rm-495" value="0" style="text;html=1;align=center;verticalAlign=middle;whiteSpace=wrap;rounded=0;" parent="1" vertex="1">
          <mxGeometry x="1140" y="890" width="60" height="30" as="geometry" />
        </mxCell>
        <mxCell id="-U--1kauAl9DVAjZG-rm-496" value="1" style="text;html=1;align=center;verticalAlign=middle;whiteSpace=wrap;rounded=0;" parent="1" vertex="1">
          <mxGeometry x="1020" y="890" width="60" height="30" as="geometry" />
        </mxCell>
        <mxCell id="-U--1kauAl9DVAjZG-rm-497" value="0" style="text;html=1;align=center;verticalAlign=middle;whiteSpace=wrap;rounded=0;" parent="1" vertex="1">
          <mxGeometry x="900" y="890" width="60" height="30" as="geometry" />
        </mxCell>
        <mxCell id="-U--1kauAl9DVAjZG-rm-498" value="1" style="text;html=1;align=center;verticalAlign=middle;whiteSpace=wrap;rounded=0;" parent="1" vertex="1">
          <mxGeometry x="780" y="890" width="60" height="30" as="geometry" />
        </mxCell>
        <mxCell id="-U--1kauAl9DVAjZG-rm-499" value="0" style="text;html=1;align=center;verticalAlign=middle;whiteSpace=wrap;rounded=0;" parent="1" vertex="1">
          <mxGeometry x="660" y="890" width="60" height="30" as="geometry" />
        </mxCell>
        <mxCell id="-U--1kauAl9DVAjZG-rm-500" value="1" style="text;html=1;align=center;verticalAlign=middle;whiteSpace=wrap;rounded=0;" parent="1" vertex="1">
          <mxGeometry x="540" y="890" width="60" height="30" as="geometry" />
        </mxCell>
        <mxCell id="-U--1kauAl9DVAjZG-rm-501" value="0" style="text;html=1;align=center;verticalAlign=middle;whiteSpace=wrap;rounded=0;" parent="1" vertex="1">
          <mxGeometry x="420" y="890" width="60" height="30" as="geometry" />
        </mxCell>
        <mxCell id="-U--1kauAl9DVAjZG-rm-502" value="1" style="text;html=1;align=center;verticalAlign=middle;whiteSpace=wrap;rounded=0;" parent="1" vertex="1">
          <mxGeometry x="510" y="790" width="60" height="30" as="geometry" />
        </mxCell>
        <mxCell id="-U--1kauAl9DVAjZG-rm-503" value="0" style="text;html=1;align=center;verticalAlign=middle;whiteSpace=wrap;rounded=0;" parent="1" vertex="1">
          <mxGeometry x="570" y="790" width="60" height="30" as="geometry" />
        </mxCell>
        <mxCell id="-U--1kauAl9DVAjZG-rm-504" value="1" style="text;html=1;align=center;verticalAlign=middle;whiteSpace=wrap;rounded=0;" parent="1" vertex="1">
          <mxGeometry x="630" y="790" width="60" height="30" as="geometry" />
        </mxCell>
        <mxCell id="-U--1kauAl9DVAjZG-rm-505" value="0" style="text;html=1;align=center;verticalAlign=middle;whiteSpace=wrap;rounded=0;" parent="1" vertex="1">
          <mxGeometry x="690" y="790" width="60" height="30" as="geometry" />
        </mxCell>
        <mxCell id="-U--1kauAl9DVAjZG-rm-506" value="1" style="text;html=1;align=center;verticalAlign=middle;whiteSpace=wrap;rounded=0;" parent="1" vertex="1">
          <mxGeometry x="750" y="790" width="60" height="30" as="geometry" />
        </mxCell>
        <mxCell id="-U--1kauAl9DVAjZG-rm-507" value="0" style="text;html=1;align=center;verticalAlign=middle;whiteSpace=wrap;rounded=0;" parent="1" vertex="1">
          <mxGeometry x="810" y="790" width="60" height="30" as="geometry" />
        </mxCell>
        <mxCell id="-U--1kauAl9DVAjZG-rm-508" value="1" style="text;html=1;align=center;verticalAlign=middle;whiteSpace=wrap;rounded=0;" parent="1" vertex="1">
          <mxGeometry x="870" y="790" width="60" height="30" as="geometry" />
        </mxCell>
        <mxCell id="-U--1kauAl9DVAjZG-rm-509" value="0" style="text;html=1;align=center;verticalAlign=middle;whiteSpace=wrap;rounded=0;" parent="1" vertex="1">
          <mxGeometry x="930" y="790" width="60" height="30" as="geometry" />
        </mxCell>
        <mxCell id="-U--1kauAl9DVAjZG-rm-510" value="1" style="text;html=1;align=center;verticalAlign=middle;whiteSpace=wrap;rounded=0;" parent="1" vertex="1">
          <mxGeometry x="990" y="790" width="60" height="30" as="geometry" />
        </mxCell>
        <mxCell id="-U--1kauAl9DVAjZG-rm-511" value="0" style="text;html=1;align=center;verticalAlign=middle;whiteSpace=wrap;rounded=0;" parent="1" vertex="1">
          <mxGeometry x="1050" y="790" width="60" height="30" as="geometry" />
        </mxCell>
        <mxCell id="-U--1kauAl9DVAjZG-rm-512" value="1" style="text;html=1;align=center;verticalAlign=middle;whiteSpace=wrap;rounded=0;" parent="1" vertex="1">
          <mxGeometry x="1110" y="790" width="60" height="30" as="geometry" />
        </mxCell>
        <mxCell id="-U--1kauAl9DVAjZG-rm-513" value="0" style="text;html=1;align=center;verticalAlign=middle;whiteSpace=wrap;rounded=0;" parent="1" vertex="1">
          <mxGeometry x="1170" y="790" width="60" height="30" as="geometry" />
        </mxCell>
        <mxCell id="-U--1kauAl9DVAjZG-rm-514" value="1" style="text;html=1;align=center;verticalAlign=middle;whiteSpace=wrap;rounded=0;" parent="1" vertex="1">
          <mxGeometry x="1230" y="790" width="60" height="30" as="geometry" />
        </mxCell>
        <mxCell id="-U--1kauAl9DVAjZG-rm-515" value="0" style="text;html=1;align=center;verticalAlign=middle;whiteSpace=wrap;rounded=0;" parent="1" vertex="1">
          <mxGeometry x="1290" y="790" width="60" height="30" as="geometry" />
        </mxCell>
        <mxCell id="-U--1kauAl9DVAjZG-rm-516" value="1" style="text;html=1;align=center;verticalAlign=middle;whiteSpace=wrap;rounded=0;" parent="1" vertex="1">
          <mxGeometry x="1350" y="790" width="60" height="30" as="geometry" />
        </mxCell>
        <mxCell id="-U--1kauAl9DVAjZG-rm-517" value="0" style="text;html=1;align=center;verticalAlign=middle;whiteSpace=wrap;rounded=0;" parent="1" vertex="1">
          <mxGeometry x="1410" y="790" width="60" height="30" as="geometry" />
        </mxCell>
        <mxCell id="-U--1kauAl9DVAjZG-rm-518" value="1" style="text;html=1;align=center;verticalAlign=middle;whiteSpace=wrap;rounded=0;" parent="1" vertex="1">
          <mxGeometry x="1470" y="790" width="60" height="30" as="geometry" />
        </mxCell>
        <mxCell id="-U--1kauAl9DVAjZG-rm-519" value="0" style="text;html=1;align=center;verticalAlign=middle;whiteSpace=wrap;rounded=0;" parent="1" vertex="1">
          <mxGeometry x="1530" y="790" width="60" height="30" as="geometry" />
        </mxCell>
        <mxCell id="-U--1kauAl9DVAjZG-rm-520" value="1" style="text;html=1;align=center;verticalAlign=middle;whiteSpace=wrap;rounded=0;" parent="1" vertex="1">
          <mxGeometry x="1590" y="790" width="60" height="30" as="geometry" />
        </mxCell>
        <mxCell id="-U--1kauAl9DVAjZG-rm-521" value="0" style="text;html=1;align=center;verticalAlign=middle;whiteSpace=wrap;rounded=0;" parent="1" vertex="1">
          <mxGeometry x="1650" y="790" width="60" height="30" as="geometry" />
        </mxCell>
        <mxCell id="-U--1kauAl9DVAjZG-rm-522" value="0" style="text;html=1;align=center;verticalAlign=middle;whiteSpace=wrap;rounded=0;" parent="1" vertex="1">
          <mxGeometry x="450" y="790" width="60" height="30" as="geometry" />
        </mxCell>
        <mxCell id="-U--1kauAl9DVAjZG-rm-527" style="edgeStyle=orthogonalEdgeStyle;rounded=0;orthogonalLoop=1;jettySize=auto;html=1;exitX=1;exitY=0.5;exitDx=0;exitDy=-5;exitPerimeter=0;entryX=0;entryY=0.5;entryDx=0;entryDy=0;" parent="1" source="-U--1kauAl9DVAjZG-rm-523" target="-U--1kauAl9DVAjZG-rm-202" edge="1">
          <mxGeometry relative="1" as="geometry" />
        </mxCell>
        <mxCell id="-U--1kauAl9DVAjZG-rm-523" value="Mux" style="shadow=0;dashed=0;align=center;html=1;strokeWidth=1;shape=mxgraph.electrical.abstract.mux2;whiteSpace=wrap;direction=east;" parent="1" vertex="1">
          <mxGeometry x="3650" y="288" width="60" height="80" as="geometry" />
        </mxCell>
        <mxCell id="-U--1kauAl9DVAjZG-rm-524" style="edgeStyle=orthogonalEdgeStyle;rounded=0;orthogonalLoop=1;jettySize=auto;html=1;exitX=0.5;exitY=0;exitDx=0;exitDy=0;entryX=0;entryY=0.2;entryDx=0;entryDy=3;entryPerimeter=0;" parent="1" source="-U--1kauAl9DVAjZG-rm-181" target="-U--1kauAl9DVAjZG-rm-523" edge="1">
          <mxGeometry relative="1" as="geometry" />
        </mxCell>
        <mxCell id="-U--1kauAl9DVAjZG-rm-525" style="edgeStyle=orthogonalEdgeStyle;rounded=0;orthogonalLoop=1;jettySize=auto;html=1;exitX=0.5;exitY=0;exitDx=0;exitDy=0;entryX=0;entryY=0.6000000000000001;entryDx=0;entryDy=3;entryPerimeter=0;" parent="1" source="-U--1kauAl9DVAjZG-rm-182" target="-U--1kauAl9DVAjZG-rm-523" edge="1">
          <mxGeometry relative="1" as="geometry" />
        </mxCell>
        <mxCell id="-U--1kauAl9DVAjZG-rm-528" value="Mux" style="shadow=0;dashed=0;align=center;html=1;strokeWidth=1;shape=mxgraph.electrical.abstract.mux2;whiteSpace=wrap;direction=east;" parent="1" vertex="1">
          <mxGeometry x="3570" y="160" width="60" height="80" as="geometry" />
        </mxCell>
        <mxCell id="-U--1kauAl9DVAjZG-rm-531" style="edgeStyle=orthogonalEdgeStyle;rounded=0;orthogonalLoop=1;jettySize=auto;html=1;exitX=0.5;exitY=0;exitDx=0;exitDy=0;entryX=0.33333333333333337;entryY=1;entryDx=10;entryDy=0;entryPerimeter=0;" parent="1" source="-U--1kauAl9DVAjZG-rm-182" target="-U--1kauAl9DVAjZG-rm-523" edge="1">
          <mxGeometry relative="1" as="geometry">
            <Array as="points">
              <mxPoint x="3490" y="340" />
              <mxPoint x="3620" y="340" />
              <mxPoint x="3620" y="390" />
              <mxPoint x="3680" y="390" />
            </Array>
          </mxGeometry>
        </mxCell>
        <mxCell id="-U--1kauAl9DVAjZG-rm-532" style="edgeStyle=orthogonalEdgeStyle;rounded=0;orthogonalLoop=1;jettySize=auto;html=1;exitX=1;exitY=0.5;exitDx=0;exitDy=-5;exitPerimeter=0;entryX=0;entryY=0.75;entryDx=0;entryDy=0;entryPerimeter=0;" parent="1" source="-U--1kauAl9DVAjZG-rm-528" target="-U--1kauAl9DVAjZG-rm-210" edge="1">
          <mxGeometry relative="1" as="geometry" />
        </mxCell>
        <mxCell id="-U--1kauAl9DVAjZG-rm-533" style="edgeStyle=orthogonalEdgeStyle;rounded=0;orthogonalLoop=1;jettySize=auto;html=1;exitX=0.5;exitY=0;exitDx=0;exitDy=0;entryX=0;entryY=0.6000000000000001;entryDx=0;entryDy=3;entryPerimeter=0;" parent="1" source="-U--1kauAl9DVAjZG-rm-182" target="-U--1kauAl9DVAjZG-rm-528" edge="1">
          <mxGeometry relative="1" as="geometry" />
        </mxCell>
        <mxCell id="-U--1kauAl9DVAjZG-rm-534" style="edgeStyle=orthogonalEdgeStyle;rounded=0;orthogonalLoop=1;jettySize=auto;html=1;exitX=0.5;exitY=0;exitDx=0;exitDy=0;entryX=0.33333333333333337;entryY=1;entryDx=10;entryDy=0;entryPerimeter=0;" parent="1" source="-U--1kauAl9DVAjZG-rm-182" target="-U--1kauAl9DVAjZG-rm-528" edge="1">
          <mxGeometry relative="1" as="geometry">
            <Array as="points">
              <mxPoint x="3490" y="260" />
              <mxPoint x="3600" y="260" />
            </Array>
          </mxGeometry>
        </mxCell>
        <mxCell id="-U--1kauAl9DVAjZG-rm-535" style="edgeStyle=orthogonalEdgeStyle;rounded=0;orthogonalLoop=1;jettySize=auto;html=1;exitX=0.5;exitY=0;exitDx=0;exitDy=0;entryX=0;entryY=0.2;entryDx=0;entryDy=3;entryPerimeter=0;" parent="1" source="-U--1kauAl9DVAjZG-rm-181" target="-U--1kauAl9DVAjZG-rm-528" edge="1">
          <mxGeometry relative="1" as="geometry" />
        </mxCell>
        <mxCell id="-U--1kauAl9DVAjZG-rm-537" style="edgeStyle=orthogonalEdgeStyle;rounded=0;orthogonalLoop=1;jettySize=auto;html=1;exitX=1;exitY=0.5;exitDx=0;exitDy=-5;exitPerimeter=0;entryX=0;entryY=0.5;entryDx=0;entryDy=0;" parent="1" source="-U--1kauAl9DVAjZG-rm-536" target="-U--1kauAl9DVAjZG-rm-217" edge="1">
          <mxGeometry relative="1" as="geometry" />
        </mxCell>
        <mxCell id="-U--1kauAl9DVAjZG-rm-536" value="Mux" style="shadow=0;dashed=0;align=center;html=1;strokeWidth=1;shape=mxgraph.electrical.abstract.mux2;whiteSpace=wrap;direction=east;flipV=1;" parent="1" vertex="1">
          <mxGeometry x="3750" y="479" width="60" height="80" as="geometry" />
        </mxCell>
        <mxCell id="-U--1kauAl9DVAjZG-rm-538" style="edgeStyle=orthogonalEdgeStyle;rounded=0;orthogonalLoop=1;jettySize=auto;html=1;exitX=1;exitY=0.5;exitDx=0;exitDy=0;entryX=0;entryY=0.6000000000000001;entryDx=0;entryDy=3;entryPerimeter=0;" parent="1" source="-U--1kauAl9DVAjZG-rm-220" target="-U--1kauAl9DVAjZG-rm-536" edge="1">
          <mxGeometry relative="1" as="geometry" />
        </mxCell>
        <mxCell id="-U--1kauAl9DVAjZG-rm-539" style="edgeStyle=orthogonalEdgeStyle;rounded=0;orthogonalLoop=1;jettySize=auto;html=1;exitX=1;exitY=0.5;exitDx=0;exitDy=0;entryX=0;entryY=0.2;entryDx=0;entryDy=3;entryPerimeter=0;" parent="1" source="-U--1kauAl9DVAjZG-rm-219" target="-U--1kauAl9DVAjZG-rm-536" edge="1">
          <mxGeometry relative="1" as="geometry" />
        </mxCell>
        <mxCell id="-U--1kauAl9DVAjZG-rm-542" style="edgeStyle=orthogonalEdgeStyle;rounded=0;orthogonalLoop=1;jettySize=auto;html=1;exitX=0.5;exitY=0;exitDx=0;exitDy=0;entryX=0.33333333333333337;entryY=1;entryDx=10;entryDy=0;entryPerimeter=0;" parent="1" source="-U--1kauAl9DVAjZG-rm-182" target="-U--1kauAl9DVAjZG-rm-536" edge="1">
          <mxGeometry relative="1" as="geometry">
            <Array as="points">
              <mxPoint x="3490" y="340" />
              <mxPoint x="3620" y="340" />
              <mxPoint x="3620" y="389" />
              <mxPoint x="3780" y="389" />
            </Array>
          </mxGeometry>
        </mxCell>
      </root>
    </mxGraphModel>
  </diagram>
</mxfile>
